<?xml version="1.0" encoding="utf-8"?>
<!-- Generator: Adobe Illustrator 16.0.3, SVG Export Plug-In . SVG Version: 6.00 Build 0)  -->
<!DOCTYPE svg PUBLIC "-//W3C//DTD SVG 1.1//EN" "http://www.w3.org/Graphics/SVG/1.1/DTD/svg11.dtd">
<svg version="1.1" id="Capa_1" xmlns="http://www.w3.org/2000/svg" xmlns:xlink="http://www.w3.org/1999/xlink" x="0px" y="0px"
	 width="26px" height="25px" viewBox="0 0 26 25" style="enable-background:new 0 0 26 25;" xml:space="preserve">
<style type="text/css">
<![CDATA[
	.st0{fill:#ACFF6F;}
	.st1{fill:#95D600;}
]]>
</style>
<g>
	<path class="st1" d="M16.5,0H0v25h16.5c4.8,0,8.7-3.9,8.7-8.8V8.8C25.3,3.9,21.4,0,16.5,0z"/>
	<path class="st0" d="M8.8,8.6C8.2,8,8.3,7.1,8.9,6.6c0.3-0.2,0.6-0.4,0.9-0.4c0.4,0,0.8,0.2,1,0.5l5.3,5.8l-5.3,5.8
		c-0.5,0.6-1.4,0.6-2,0.1c-0.6-0.5-0.6-1.4-0.1-2l3.6-3.9L8.8,8.6z"/>

</g>
</svg>
