<?xml version="1.0" encoding="utf-8"?>
<!-- Generator: Adobe Illustrator 16.0.3, SVG Export Plug-In . SVG Version: 6.00 Build 0)  -->
<!DOCTYPE svg PUBLIC "-//W3C//DTD SVG 1.1//EN" "http://www.w3.org/Graphics/SVG/1.1/DTD/svg11.dtd">
<svg version="1.1" xmlns="http://www.w3.org/2000/svg" xmlns:xlink="http://www.w3.org/1999/xlink" x="0px" y="0px" width="157.5px"
	 height="82.5px" viewBox="0 0 157.5 82.5" style="enable-background:new 0 0 157.5 82.5;" xml:space="preserve">
<style type="text/css">

	.st0{display:inline;fill:none;stroke:#cccccc;stroke-width:1.4682;stroke-miterlimit:10;}
	.st1{fill:#cccccc;}
	.st2{fill-rule:evenodd;clip-rule:evenodd;fill:#cccccc;}
	.st3{display:none;}

</style>
<g id="Capa_2">
	<g>
		<path class="st1" d="M103,42.7c-0.4-0.5-1-0.9-1.6-1.2c-0.7-0.3-1.3-0.4-2.1-0.4h-7c-0.3,0-0.5,0.1-0.7,0.3
			c-0.2,0.2-0.3,0.4-0.3,0.7c0,0.6,0.3,1,1,1h6.9c1,0,1.8,0.3,2.3,1.1c0.5,0.7,0.9,1.6,0.9,2.7v2.8h-6.7c-0.8,0-1.5,0.1-2.2,0.5
			c-0.7,0.3-1.3,0.7-1.8,1.2c-0.5,0.5-0.9,1.1-1.2,1.7c-0.3,0.7-0.4,1.4-0.4,2.2c0,0.8,0.1,1.5,0.4,2.2c0.3,0.7,0.7,1.2,1.2,1.8
			c0.5,0.5,1.1,0.9,1.8,1.2c0.7,0.3,1.4,0.4,2.2,0.4h7.2c0.5,0,0.8-0.2,1.1-0.5c0.3-0.3,0.4-0.6,0.4-1.1V46.7c0-0.8-0.1-1.5-0.4-2.2
			C103.8,43.8,103.5,43.2,103,42.7z M102.4,58.7h-6.7c-0.5,0-1-0.1-1.4-0.3c-0.5-0.2-0.8-0.4-1.1-0.8c-0.4-0.3-0.6-0.7-0.8-1.1
			c-0.2-0.4-0.3-0.9-0.3-1.4c0-0.5,0.1-1,0.3-1.4c0.2-0.4,0.4-0.8,0.8-1.1c0.3-0.3,0.7-0.6,1.1-0.8c0.4-0.2,0.9-0.3,1.4-0.3h6.7
			V58.7z"/>
		<path class="st1" d="M116.2,41.1h-1.2c-2.4,0-4.3,0.6-5.5,1.8v-0.8c0-0.3-0.1-0.5-0.3-0.7c-0.2-0.2-0.5-0.3-0.7-0.3
			c-0.3,0-0.5,0.1-0.7,0.3c-0.2,0.2-0.3,0.5-0.3,0.7v17.5c0,0.3,0.1,0.5,0.3,0.7c0.2,0.2,0.4,0.3,0.7,0.3c0.3,0,0.5-0.1,0.7-0.3
			c0.2-0.2,0.3-0.4,0.3-0.7v-11c0-1.8,0.4-3.1,1.3-4.2c0.9-1,2.3-1.5,4.2-1.5h1.3c0.3,0,0.5-0.1,0.7-0.3c0.2-0.2,0.3-0.4,0.3-0.7
			c0-0.3-0.1-0.5-0.3-0.7C116.8,41.2,116.5,41.1,116.2,41.1z"/>
		<path class="st1" d="M136.3,51.4c-1-0.8-2.5-1.3-4.3-1.6l-1.5-0.2c-1.6-0.2-2.8-0.5-3.6-1c-0.7-0.4-1.1-1.2-1.1-2.3
			c0-1.2,0.5-2,1.3-2.5c0.9-0.5,1.9-0.7,3.2-0.7h6c0.3,0,0.5-0.1,0.7-0.3c0.2-0.2,0.3-0.4,0.3-0.7c0-0.3-0.1-0.5-0.3-0.7
			c-0.2-0.2-0.5-0.3-0.8-0.3h-5.9c-0.9,0-1.7,0.1-2.5,0.3c-0.8,0.2-1.5,0.5-2.1,0.9c-0.6,0.4-1.1,1-1.4,1.7
			c-0.3,0.7-0.6,1.5-0.6,2.5c0,1.7,0.6,3,1.7,3.7c1.1,0.7,2.6,1.2,4.6,1.4l1.6,0.2c1.4,0.2,2.4,0.6,3.1,1.1c0.7,0.6,1.1,1.3,1.1,2.2
			c0,1.3-0.4,2.3-1.4,2.8c-0.9,0.5-2.2,0.8-3.7,0.8h-5.4c-0.3,0-0.5,0.1-0.7,0.3c-0.2,0.2-0.3,0.4-0.3,0.7c0,0.3,0.1,0.5,0.3,0.7
			c0.2,0.2,0.4,0.3,0.7,0.3h5.4c1.1,0,2-0.1,2.9-0.3c0.9-0.2,1.6-0.5,2.3-0.9c0.7-0.4,1.1-1,1.5-1.7c0.4-0.7,0.6-1.6,0.6-2.7
			C137.9,53.5,137.3,52.3,136.3,51.4z"/>
		<path class="st1" d="M120.5,41.1c-0.3,0-0.6,0.1-0.7,0.3c-0.2,0.2-0.3,0.4-0.3,0.7v17.5c0,0.3,0.1,0.5,0.3,0.7
			c0.2,0.2,0.4,0.3,0.7,0.3c0.3,0,0.5-0.1,0.7-0.3c0.2-0.2,0.3-0.4,0.3-0.7V42.2c0-0.3-0.1-0.5-0.3-0.7
			C121,41.2,120.8,41.1,120.5,41.1z"/>
		<path class="st1" d="M120.5,33.7c-0.8,0-1.4,0.6-1.4,1.3c0,0.7,0.6,1.3,1.4,1.3c0.7,0,1.3-0.6,1.3-1.3
			C121.8,34.3,121.2,33.7,120.5,33.7z"/>
		<path class="st1" d="M77.3,33.7c-4.5,0-8.2,3.7-8.2,8.2v17.7c0,0.6,0.4,1,1,1c0.6,0,1-0.5,1-1V47.3h4.2c0.6,0,1-0.5,1-1
			c0-0.6-0.4-1-1-1h-4.2v-3.3c0-3.4,2.8-6.2,6.2-6.2c0.5,0,1-0.5,1-1C78.3,34.2,77.9,33.7,77.3,33.7z"/>
		<path class="st1" d="M88.4,33.7c-4.5,0-8.2,3.7-8.2,8.2v17.7c0,0.6,0.5,1,1,1c0.6,0,1-0.5,1-1V47.3h4.2c0.5,0,1-0.5,1-1
			c0-0.6-0.5-1-1-1h-4.2v-3.3c0-3.4,2.8-6.2,6.2-6.2c0.6,0,1-0.5,1-1C89.4,34.2,89,33.7,88.4,33.7z"/>
		<path class="st1" d="M56.6,34.3c-0.2-0.4-0.6-0.7-1-0.7c-0.4,0-0.8,0.3-1,0.7l-9.3,25c-0.2,0.5,0.1,1.1,0.6,1.3
			c0.1,0,0.3,0.1,0.4,0.1c0.4,0,0.8-0.3,0.9-0.7l7.4-19.9c0.2-0.4,0.5-0.6,0.9-0.6c0.4,0,0.7,0.3,0.9,0.6l3.6,9.6h-5.5
			c-0.6,0-1,0.5-1,1s0.4,1,1,1h6.3L64,60c0.2,0.5,0.8,0.8,1.3,0.6c0.6-0.2,0.8-0.8,0.6-1.3L56.6,34.3z"/>
		<path class="st1" d="M34.8,24.1c-1-0.8-2-1.6-3.1-2.3c-1.1,0.7-2.1,1.4-3.1,2.3c-5.1,4.4-8.5,10.7-9,17.8c-0.1,0.7-0.1,1.4-0.1,2
			c0,0.5,0,1,0,1.5c1.2-0.2,2.4-0.4,3.5-0.7c0-0.3,0-0.5,0-0.8c0-1,0.1-2,0.2-3c0.7-6,3.9-11.3,8.4-14.9c4.5,3.6,7.7,8.9,8.4,14.9
			c-3.7-1.2-7-3.4-9.5-6.2c-0.9,0.8-1.7,1.7-2.4,2.6c3.2,3.4,7.4,6,12.1,7.3c1.1,0.3,2.3,0.6,3.5,0.7c0-0.5,0.1-1,0.1-1.5
			c0-0.7,0-1.4-0.1-2C43.3,34.9,39.9,28.5,34.8,24.1z"/>
	</g>
</g>
<g id="Capa_3" class="st3">
</g>
</svg>
