<?xml version="1.0" encoding="utf-8"?>
<!-- Generator: Adobe Illustrator 16.0.3, SVG Export Plug-In . SVG Version: 6.00 Build 0)  -->
<!DOCTYPE svg PUBLIC "-//W3C//DTD SVG 1.1//EN" "http://www.w3.org/Graphics/SVG/1.1/DTD/svg11.dtd">
<svg version="1.1" xmlns="http://www.w3.org/2000/svg" xmlns:xlink="http://www.w3.org/1999/xlink" x="0px" y="0px" width="157.5px"
	 height="82.5px" viewBox="0 0 157.5 82.5" style="enable-background:new 0 0 157.5 82.5;" xml:space="preserve">
<style type="text/css">
<![CDATA[
	.st0{display:inline;fill:none;stroke:#808080;stroke-width:1.4682;stroke-miterlimit:10;}
	.st1{fill:#0000001E;}
	.st2{fill-rule:evenodd;clip-rule:evenodd;fill:#0000001E;}
	.st3{display:none;}
]]>
</style>
<g id="Capa_2">
	<g>
		<g>
			<g>
				<path class="st1" d="M128.4,47.9c0-0.3-0.1-0.6-0.1-0.9c0-0.6,0-1.1,0.2-1.6c0.2-0.6,0.6-0.9,1-1.4c-0.3-0.4-0.7-0.4-1-0.7
					c-0.4-0.3-0.6-0.8-0.9-1.2c-0.4,0.9-0.3,1.9-0.8,2.8c-0.3,0.6-0.7,1.4-1.4,1.5c-0.1,0-0.2,0-0.3,0c0,0-0.1,0-0.1,0l0,0
					c-0.6,0.1-1.2,0.3-1.7,0.7c-1.6,1.3-2,3.6-0.7,5.3c1.3,1.7,3.7,2,5.3,0.7c1.7-1.3,2-3.7,0.7-5.3C128.5,48,128.5,47.9,128.4,47.9
					z"/>
			</g>
		</g>
		<g>
			<g>
				<path class="st1" d="M146,34.2c-1.3-1.7-3.6-2-5.3-0.7c-0.6,0.5-1,1.1-1.2,1.7c-1,0.7-2.3,0.8-3.3,0l-0.2,0.6
					c0,0.6,0.3,1.1,0.4,1.7c0.1,0.8,0,1.5,0.1,2.3c0.5-0.6,1.1-1.2,1.9-1.5c0.3-0.1,0.8-0.2,1.3-0.1c0.1,0.2,0.2,0.4,0.4,0.6
					c1.3,1.7,3.6,2,5.3,0.7C146.9,38.2,147.2,35.9,146,34.2z"/>
			</g>
		</g>
		<path class="st1" d="M72.1,33.7c-5.1,0-9.4,2-9.4,9s4.3,9,9.4,9c0.7,0,1.4,0,2.1-0.1c0.7-0.1,1.4-0.2,2.1-0.4l3,3.1l2.1-2.8
			l-2-2.1c1.4-1.4,2.2-3.5,2.2-6.6C81.5,35.7,77.2,33.7,72.1,33.7z M75.8,45.7L74.1,44L72,46.8l1,1c-0.3,0-0.6,0.1-1,0.1
			c-2.6,0-4.3-1.6-4.3-5.2c0-3.5,1.8-5.2,4.3-5.2c2.6,0,4.3,1.7,4.3,5.2C76.4,43.9,76.2,45,75.8,45.7z"/>
		<path class="st1" d="M92.6,44.8c0,2.1-1.2,3.1-2.7,3.1c-1.4,0-2.2-0.8-2.2-2.9v-6.6h-4.3v8.2c0,3.9,2,5.2,4.7,5.2
			c2.2,0,3.8-0.9,4.6-2.2h0v1.7h4.2V38.3h-4.3V44.8z"/>
		<rect x="99.2" y="33.8" class="st1" width="4.3" height="3.1"/>
		<rect x="99.2" y="38.3" class="st1" width="4.3" height="12.9"/>
		<path class="st1" d="M114.7,38c-2.2,0-3.8,0.9-4.6,2.2h0v-1.9h-4.2v12.9h4.3v-6.3c0-2.1,1.2-3.1,2.7-3.1c1.4,0,2.2,0.8,2.2,2.5
			v6.9h4.3v-8.5C119.4,39.5,117.4,38,114.7,38z"/>
		<polygon class="st1" points="20.8,33.5 17.1,45.6 17,45.6 13.4,33.5 8,33.5 14.5,50.4 19.6,50.4 26.1,33.5 		"/>
		<path class="st1" d="M31.8,37.1c-4.6,0-7.6,2.4-7.6,6.9c0,4.8,2.8,7,7.7,7c4.7,0,6.8-2.2,7.3-4.3h-4.5c-0.5,0.8-1.2,1.4-2.6,1.4
			c-2.2,0-3.2-1.2-3.4-2.9h10.8v-0.4C39.5,39.5,36.5,37.1,31.8,37.1z M28.7,42.6c0.2-1.4,1.2-2.6,3.2-2.6c2,0,3,1.2,3.2,2.6H28.7z"
			/>
		<rect x="40.7" y="33.1" class="st1" width="4.3" height="17.4"/>
		<path class="st1" d="M60.8,41.6c0-3.6-3-4.4-7-4.4c-3.4,0-6.4,0.5-6.9,4.4h4.3c0.2-1.1,1-1.6,2.5-1.6c1.9,0,2.7,0.5,2.7,1.4
			c0,0.7-0.2,0.9-1.3,1l-4.3,0.3C47.8,43,46.2,44,46.2,47c0,2.7,1.8,4,5.3,4c2.2,0,4-0.3,5.2-1.7c0,0.4,0.1,0.8,0.2,1.2h4.3
			c-0.4-0.7-0.5-1.2-0.5-2.3V41.6z M56.6,45.2c0,1.8-1.4,2.8-3.9,2.8c-1.2,0-1.9-0.6-1.9-1.6c0-0.8,0.3-1.2,1.2-1.3l2.9-0.4
			c0.8-0.1,1.3-0.3,1.7-0.4V45.2z"/>
		<path class="st1" d="M149.2,39.9c-0.2-0.3-0.4-0.5-0.7-0.6c-0.2-0.1-0.4-0.1-0.7-0.1c-0.4,0-0.7,0.1-1,0.4
			c-0.2,0.2-0.4,0.4-0.5,0.6c-0.1,0.2-0.2,0.5-0.2,0.7c0,0.5,0.2,0.9,0.5,1.2c0.3,0.3,0.7,0.5,1.1,0.5c0.5,0,0.9-0.2,1.2-0.5
			c0.3-0.3,0.5-0.7,0.5-1.2C149.4,40.4,149.3,40.2,149.2,39.9z M148.7,41.8c-0.3,0.3-0.6,0.4-1,0.4c-0.4,0-0.7-0.1-1-0.4
			c-0.3-0.3-0.4-0.6-0.4-1c0-0.4,0.1-0.7,0.4-1c0.3-0.3,0.6-0.4,1-0.4c0.3,0,0.6,0.1,0.8,0.3c0.2,0.1,0.3,0.3,0.5,0.5
			c0.1,0.2,0.2,0.4,0.2,0.7C149.2,41.2,149,41.5,148.7,41.8z"/>
		<path class="st1" d="M147.9,40.9c0.1,0,0.2-0.1,0.3-0.2c0.1-0.1,0.1-0.2,0.1-0.3c0-0.2-0.1-0.3-0.2-0.4c-0.1-0.1-0.3-0.1-0.6-0.1
			h-0.4v1.9h0.4V41l0.6,0.8h0.4L147.9,40.9L147.9,40.9z M147.6,40.7L147.6,40.7l-0.1-0.5h0.1c0.3,0,0.4,0.1,0.4,0.2
			C148,40.6,147.8,40.7,147.6,40.7z"/>
		<path class="st1" d="M128.6,48c-1.3-1.7-3.7-2-5.3-0.7c-1.6,1.3-2,3.6-0.7,5.3c1.3,1.7,3.7,2,5.3,0.7
			C129.6,52.1,129.9,49.7,128.6,48z"/>
		<path class="st1" d="M146,34.2c-1.3-1.7-3.6-2-5.3-0.7c-1.6,1.3-2,3.6-0.7,5.3c1.3,1.7,3.6,2,5.3,0.7
			C146.9,38.2,147.2,35.9,146,34.2z"/>
		<path class="st1" d="M128.8,34.5c-0.3-0.3-0.6-0.5-0.8-0.8c-0.3-0.6-0.4-1.4-0.6-2c0-0.7-0.2-1.4-0.7-2c-1.1-1.4-3-1.7-4.4-0.6
			c-1.4,1.1-1.6,3-0.6,4.4c0.5,0.7,1.4,1.2,2.3,1.2c0.8,0.1,1.5,0.1,2,0.8c0.2,0.2,0.2,0.4,0.3,0.7c0.1,0.2,0.1,0.3,0.2,0.5
			c-1.2,1.9-1.4,4.2-0.2,6c1.6,2.5,5.2,2.9,8,1c2.8-1.9,3.8-5.5,2.2-8C134.9,33.3,131.5,32.8,128.8,34.5z"/>
	</g>
</g>
<g id="Capa_3" class="st3">
</g>
</svg>
