<?xml version="1.0" encoding="utf-8"?>
<!-- Generator: Adobe Illustrator 16.0.3, SVG Export Plug-In . SVG Version: 6.00 Build 0)  -->
<!DOCTYPE svg PUBLIC "-//W3C//DTD SVG 1.1//EN" "http://www.w3.org/Graphics/SVG/1.1/DTD/svg11.dtd">
<svg version="1.1" xmlns="http://www.w3.org/2000/svg" xmlns:xlink="http://www.w3.org/1999/xlink" x="0px" y="0px" width="157.5px"
	 height="82.5px" viewBox="0 0 157.5 82.5" style="enable-background:new 0 0 157.5 82.5;" xml:space="preserve">
<style type="text/css">
<![CDATA[
	.st0{display:inline;fill:none;stroke:#808080;stroke-width:1.4682;stroke-miterlimit:10;}
	.st1{fill:#0000001E;}
	.st2{fill-rule:evenodd;clip-rule:evenodd;fill:#0000001E;}
	.st3{display:none;}
]]>
</style>
<g id="Capa_2">
	<g>
		<polygon class="st1" points="95.4,35.9 75.5,35.9 62.1,11.1 82,11.1 		"/>
		<g>
			<path class="st1" d="M24.6,45.7h2.9v14.1h8.8v2.7H24.6V45.7z"/>
			<path class="st1" d="M47.8,45.6h2.7l7.4,16.9h-3.1l-1.7-4h-7.9l-1.7,4h-3L47.8,45.6z M52,55.8l-2.9-6.7l-2.9,6.7H52z"/>
			<path class="st1" d="M59.7,45.7h3.2l4,12.4L71,45.6h2.5l4.1,12.5l4-12.4h3.1l-5.8,16.9h-2.6l-4.1-12l-4.1,12h-2.5L59.7,45.7z"/>
			<path class="st1" d="M90.1,45.7h7.5c1.9,0,3.4,0.5,4.4,1.5c0.8,0.7,1.1,1.7,1.1,2.8v0c0,2-1.2,3.1-2.4,3.7c2,0.7,3.3,1.8,3.3,4.1
				v0c0,3-2.5,4.6-6.2,4.6h-7.8V45.7z M100.2,50.4c0-1.3-1.1-2.1-3-2.1h-4.2v4.5h4C98.9,52.8,100.2,52,100.2,50.4L100.2,50.4z
				 M97.6,55.2h-4.7v4.6h4.9c2,0,3.2-0.8,3.2-2.3v0C101.1,56.1,100,55.2,97.6,55.2z"/>
			<path class="st1" d="M109.9,45.7h3v16.8h-3V45.7z"/>
			<path class="st1" d="M119.1,60.3l9.9-12h-9.6v-2.6h13.4v2.2l-9.9,12h9.9v2.6h-13.7V60.3z"/>
		</g>
		<g>
			<path class="st1" d="M38.6,69.3L38.6,69.3c0-1.2,0.9-2.1,2-2.1c0.7,0,1.2,0.3,1.6,0.6L42,68c-0.4-0.3-0.8-0.6-1.4-0.6
				c-1,0-1.7,0.8-1.7,1.8v0c0,1,0.8,1.8,1.7,1.8c0.6,0,1-0.2,1.4-0.6l0.2,0.2c-0.4,0.4-0.9,0.7-1.6,0.7
				C39.4,71.4,38.6,70.5,38.6,69.3z"/>
			<path class="st1" d="M43.9,69.3L43.9,69.3c0-1.1,0.8-2.1,2.1-2.1c1.2,0,2,1,2,2.1v0c0,1.1-0.8,2.1-2,2.1
				C44.7,71.4,43.9,70.4,43.9,69.3z M47.7,69.3L47.7,69.3c0-1-0.8-1.9-1.7-1.9c-1,0-1.7,0.8-1.7,1.8v0c0,1,0.7,1.8,1.8,1.8
				C47,71.1,47.7,70.3,47.7,69.3z"/>
			<path class="st1" d="M50.3,67.2h0.3l2.8,3.6v-3.6h0.3v4.1h-0.2l-2.9-3.6v3.6h-0.3V67.2z"/>
			<path class="st1" d="M55.8,70.7l0.2-0.2c0.5,0.4,0.9,0.6,1.5,0.6c0.6,0,1-0.4,1-0.8v0c0-0.4-0.2-0.7-1.2-0.9
				c-1-0.2-1.4-0.5-1.4-1.2v0c0-0.6,0.6-1.1,1.3-1.1c0.6,0,1,0.2,1.4,0.5l-0.2,0.2c-0.4-0.3-0.8-0.5-1.2-0.5c-0.6,0-1,0.4-1,0.8v0
				c0,0.4,0.2,0.7,1.2,0.9c0.9,0.2,1.3,0.5,1.3,1.1v0c0,0.7-0.6,1.1-1.4,1.1C56.8,71.4,56.3,71.2,55.8,70.7z"/>
			<path class="st1" d="M60.9,69.6v-2.4h0.3v2.4c0,1,0.5,1.5,1.4,1.5c0.8,0,1.4-0.5,1.4-1.5v-2.4h0.3v2.4c0,1.2-0.7,1.8-1.7,1.8
				C61.6,71.4,60.9,70.8,60.9,69.6z"/>
			<path class="st1" d="M66.6,67.2h0.3v3.8h2.4v0.3h-2.7V67.2z"/>
			<path class="st1" d="M71.9,67.5h-1.4v-0.3h3.2v0.3h-1.5v3.8h-0.3V67.5z"/>
			<path class="st1" d="M75.8,67.2h0.3v4.1h-0.3V67.2z"/>
			<path class="st1" d="M78.5,67.2h0.3l2.8,3.6v-3.6h0.3v4.1h-0.2l-2.9-3.6v3.6h-0.3V67.2z"/>
			<path class="st1" d="M84.1,69.3L84.1,69.3c0-1.1,0.8-2.1,2-2.1c0.7,0,1.1,0.2,1.5,0.5l-0.2,0.2c-0.4-0.3-0.7-0.5-1.4-0.5
				c-1,0-1.7,0.9-1.7,1.8v0c0,1,0.7,1.8,1.7,1.8c0.5,0,1-0.2,1.3-0.5v-1.2h-1.4v-0.3h1.7v1.6c-0.4,0.3-0.9,0.6-1.6,0.6
				C84.9,71.4,84.1,70.5,84.1,69.3z"/>
			<path class="st1" d="M92.8,69.3L92.8,69.3c0-1.1,0.8-2.1,2-2.1c0.7,0,1.1,0.2,1.5,0.5l-0.2,0.2c-0.3-0.3-0.7-0.5-1.3-0.5
				c-1,0-1.7,0.9-1.7,1.8v0c0,1,0.6,1.8,1.7,1.8c0.5,0,1-0.2,1.3-0.5v-1.2h-1.4v-0.3h1.7v1.6c-0.4,0.3-1,0.6-1.6,0.6
				C93.6,71.4,92.8,70.5,92.8,69.3z"/>
			<path class="st1" d="M98.8,67.2h1.7c0.5,0,0.9,0.2,1.1,0.4c0.2,0.2,0.3,0.5,0.3,0.8v0c0,0.7-0.5,1.1-1.2,1.2l1.3,1.7h-0.4
				l-1.3-1.7h-1.3v1.7h-0.3V67.2z M100.4,69.4c0.7,0,1.2-0.4,1.2-0.9v0c0-0.6-0.4-0.9-1.2-0.9h-1.4v1.8H100.4z"/>
			<path class="st1" d="M104,69.3L104,69.3c0-1.1,0.8-2.1,2.1-2.1s2.1,1,2.1,2.1v0c0,1.1-0.8,2.1-2.1,2.1
				C104.8,71.4,104,70.4,104,69.3z M107.8,69.3L107.8,69.3c0-1-0.7-1.9-1.7-1.9c-1,0-1.8,0.8-1.8,1.8v0c0,1,0.8,1.8,1.8,1.8
				C107.1,71.1,107.8,70.3,107.8,69.3z"/>
			<path class="st1" d="M110.3,69.6v-2.4h0.3v2.4c0,1,0.5,1.5,1.4,1.5c0.8,0,1.4-0.5,1.4-1.5v-2.4h0.3v2.4c0,1.2-0.7,1.8-1.7,1.8
				C110.9,71.4,110.3,70.8,110.3,69.6z"/>
			<path class="st1" d="M115.9,67.2h1.5c0.9,0,1.5,0.5,1.5,1.3v0c0,0.9-0.8,1.3-1.6,1.3h-1.1v1.5h-0.3V67.2z M117.4,69.5
				c0.7,0,1.3-0.4,1.3-1v0c0-0.6-0.5-1-1.2-1h-1.2v2H117.4z"/>
		</g>
		<polygon class="st1" points="108.6,33.6 88.7,33.6 81.7,20.8 101.7,20.8 		"/>
		<polygon class="st1" points="75.7,26.3 55.8,26.3 48.9,13.5 68.8,13.5 		"/>
	</g>
</g>
<g id="Capa_3" class="st3">
</g>
</svg>
