<?xml version="1.0" encoding="utf-8"?>
<!-- Generator: Adobe Illustrator 16.0.3, SVG Export Plug-In . SVG Version: 6.00 Build 0)  -->
<!DOCTYPE svg PUBLIC "-//W3C//DTD SVG 1.1//EN" "http://www.w3.org/Graphics/SVG/1.1/DTD/svg11.dtd">
<svg version="1.1" xmlns="http://www.w3.org/2000/svg" xmlns:xlink="http://www.w3.org/1999/xlink" x="0px" y="0px" width="157.5px"
	 height="82.5px" viewBox="0 0 157.5 82.5" style="enable-background:new 0 0 157.5 82.5;" xml:space="preserve">
<style type="text/css">

	.st0{display:inline;fill:none;stroke:#cccccc;stroke-width:1.4682;stroke-miterlimit:10;}
	.st1{fill:#cccccc;}
	.st2{fill-rule:evenodd;clip-rule:evenodd;fill:#cccccc;}
	.st3{display:none;}

</style>
<g id="Capa_2">
	<g>
		<path class="st1" d="M43.6,36.6c0,0-3.6,0-3.6,0l-0.6,3c0,0,3.2,0,4.3,0C45.2,39.5,46.5,36.6,43.6,36.6z"/>
		<path class="st1" d="M42.4,42.3h-3.6c0,0-0.8,3.5-0.8,3.5c0,0,4.7,0,4.7,0C45.7,46,46.2,42.2,42.4,42.3z"/>
		<path class="st1" d="M62.5,37.8c-1.7,1.7-2.3,5.6-1.4,6.9c0.5,0.8,1.5,1.4,3.2,1c0.5-0.1,1.8-0.5,2.9-2.2c1-1.7,2-4.8,0.5-6.2
			C66.2,36,63.7,36.4,62.5,37.8z"/>
		<polygon class="st1" points="99.8,43.2 104,43.2 102.9,37.8 		"/>
		<path class="st1" d="M118.1,36.6c0,0-2.7,0-2.7,0l-2,9.4h2.5C122.5,45.9,122.6,36.6,118.1,36.6z"/>
		<path class="st1" d="M118.4,26.6C118.5,26.6,118.5,26.6,118.4,26.6C118.5,26.6,118.5,26.6,118.4,26.6z"/>
		<path class="st1" d="M118.5,26.6C118.6,26.6,118.5,26.7,118.5,26.6l-75.3,0c0,0-4.9,0-5,0C24,27.2,21.8,40.1,23.9,46
			c1.3,5.2,6.9,9.7,15,9.9h78.3c9.7,0.1,14.5-4.6,16.4-9.8C134.9,42,135.9,26.8,118.5,26.6z M46.2,48c-1.2,0.5-2.1,0.7-4.2,0.7h-8.6
			l3.1-15l9.2,0c3.5,0,4.5,2.8,3.4,5c-0.6,1.1-1.5,1.7-2.3,2C50.3,42.2,49.2,46.7,46.2,48z M49.3,48.8l3.3-14.9h4.1l-3.2,14.9H49.3z
			 M70.4,45.8c-2.5,3.1-7,3.8-10.4,2.9c-2.3-0.7-3.4-2.3-3.8-4c-0.5-3.5,0.8-6.9,3.3-9.4c2.2-2.2,5.6-2.6,8.7-2
			c1.5,0.4,3,1.3,3.8,2.7C73.7,39.2,72.6,43.2,70.4,45.8z M116.7,48.7h-8.1l0,0l-3.4,0c0,0-0.6-2.5-0.6-2.6H98c0,0-1.5,2.6-1.5,2.6
			l-2.9,0c0,0,0,0,0,0h-4.9c0-0.8,2.3-6.1-1.1-6h-3.4c0,0-0.8,4-1.3,6h-4.1c0,0,1.2-6,1.2-6l-4.4,0l0.7-3l4.4,0l1.4-6h8.1
			c7.5-0.1,5.4,7.1,1.2,8.2c1.9,0.6,2.2,2.8,2.2,4.9l7.9-13.1c0,0,4.7,0,4.7,0c0,0,2,9.2,2.8,13.1l2.8-13.1h7.8
			c3.8,0.3,5.2,2.5,5.6,4.6C125.9,41.8,125.4,48.6,116.7,48.7z"/>
		<path class="st1" d="M88.8,36.6h-3.3l-0.7,3.2c0,0,4.2,0,4.2,0C91,39.7,91.6,36.8,88.8,36.6z"/>
	</g>
</g>
<g id="Capa_3" class="st3">
</g>
</svg>
