<?xml version="1.0" encoding="utf-8"?>
<!-- Generator: Adobe Illustrator 16.0.3, SVG Export Plug-In . SVG Version: 6.00 Build 0)  -->
<!DOCTYPE svg PUBLIC "-//W3C//DTD SVG 1.1//EN" "http://www.w3.org/Graphics/SVG/1.1/DTD/svg11.dtd">
<svg version="1.1" xmlns="http://www.w3.org/2000/svg" xmlns:xlink="http://www.w3.org/1999/xlink" x="0px" y="0px" width="157.5px"
	 height="82.5px" viewBox="0 0 157.5 82.5" style="enable-background:new 0 0 157.5 82.5;" xml:space="preserve">
<style type="text/css">

	.st0{display:inline;fill:none;stroke:#cccccc;stroke-width:1.4682;stroke-miterlimit:10;}
	.st1{fill:#cccccc;}
	.st2{fill-rule:evenodd;clip-rule:evenodd;fill:#cccccc;}
	.st3{display:none;}

</style>
<g id="Capa_2">
	<g>
		<g>
			<path class="st1" d="M42.9,29.8c2.6,0,4.7-2.1,4.7-4.7c0-2.6-2.1-4.7-4.7-4.7c-2.7,0-4.8,2.1-4.8,4.7
				C38.1,27.7,40.2,29.8,42.9,29.8z"/>
		</g>
		<g>
			<g>
				<path class="st1" d="M72,50.9L72,50.9c0.3,0,1.3,0,2.2-0.4c1.3-0.6,2-1.6,2-3V20.2c0,0-4.7,0.1-4.7,3.8c0,3.8,0,26.5,0,26.5v0.5
					L72,50.9z"/>
				<path class="st1" d="M89.9,51c6.3,0,11.4-5.1,11.4-11.4c0-6.3-5.1-11.4-11.4-11.4c-6.3,0-11.4,5.1-11.4,11.4
					C78.5,45.9,83.6,51,89.9,51z M89.9,32.7c3.8,0,6.9,3.1,6.9,6.9c0,3.8-3.1,6.9-6.9,6.9c-3.8,0-6.9-3.1-6.9-6.9
					C83,35.8,86.1,32.7,89.9,32.7z"/>
				<path class="st1" d="M116.2,27.9c-7.1,0-12.9,5.8-12.9,13l0,0.4v9.1l0,0.4l0.4,0c0,0,0,0,0.1,0h0c0.3,0,1.3,0,2.2-0.6
					c0.8-0.5,1.8-1.6,1.8-3.8l0-5.4l0-0.4c0.1-3.3,2.7-8,8.3-8h0.1c3.5,0,3.8-4.8,3.8-4.8H116.2z"/>
				<path class="st1" d="M141.2,31.8c0-3.5-4.4-3.8-4.4-3.8v2.5c-1.9-1.5-4.4-2.5-7-2.5c-6.3,0-11.4,5.1-11.4,11.4
					c0,6.3,5.1,11.4,11.4,11.4c2.5,0,4.9-0.8,6.9-2.3v2v0.5l0.4,0c0,0,0,0,0.1,0c0.3,0,1.3,0,2.2-0.6c0.8-0.5,1.8-2.1,1.8-4.3v-3.5
					C141.2,42.7,141.2,35,141.2,31.8z M129.8,46.4c-3.8,0-6.9-3.1-6.9-6.9c0-3.8,3.1-6.9,6.9-6.9c3.8,0,6.9,3.1,6.9,6.9
					C136.7,43.3,133.6,46.4,129.8,46.4z"/>
				<path class="st1" d="M69.1,39.5c0-6.3-5.1-11.4-11.4-11.4c-2.3,0-4.4,0.7-6.2,1.8l0,0l-8.9,6.9l-9-7l0,0c-1.8-1.1-3.8-1.7-6-1.7
					c-6.3,0-11.4,5.1-11.4,11.4c0,6.3,5.1,11.4,11.4,11.4c2.1,0,4-0.6,5.7-1.5l9.5-7.2l8.4,6.7l0,0c0.3,0.2,0.5,0.4,0.8,0.5V44
					l-6.2-4.5l7.8-5.6l0,0c1.1-0.9,2.6-1.4,4.1-1.4c3.8,0,6.9,3.1,6.9,6.9c0,3.8-3.1,6.9-6.9,6.9c-1.1,0-2.1-0.3-3-0.7v4.8l0,0
					c0,6,0,11.4,0,11.4l0,0.5l0.5,0h0.1c0.3,0,1.2,0,2.1-0.4c1.3-0.6,2-1.6,2-3v-8.2C64.8,50,69.1,45.3,69.1,39.5z M32.3,44.7
					L32.3,44.7c-1.2,1-2.9,1.7-4.7,1.7c-3,0-5.5-1.9-6.5-4.6h4c1.3,0,2.3-1,2.3-2.3c0-1.3-1-2.3-2.3-2.3h-4c0.9-2.7,3.5-4.6,6.5-4.6
					c1.5,0,2.8,0.5,3.9,1.2v0l0,0l8,5.6L32.3,44.7z"/>
			</g>
		</g>
	</g>
</g>
<g id="Capa_3" class="st3">
</g>
</svg>
