<?xml version="1.0" encoding="utf-8"?>
<!-- Generator: Adobe Illustrator 16.0.3, SVG Export Plug-In . SVG Version: 6.00 Build 0)  -->
<!DOCTYPE svg PUBLIC "-//W3C//DTD SVG 1.1//EN" "http://www.w3.org/Graphics/SVG/1.1/DTD/svg11.dtd">
<svg version="1.1" xmlns="http://www.w3.org/2000/svg" xmlns:xlink="http://www.w3.org/1999/xlink" x="0px" y="0px" width="157.5px"
	 height="82.5px" viewBox="0 0 157.5 82.5" style="enable-background:new 0 0 157.5 82.5;" xml:space="preserve">
<style type="text/css">
<![CDATA[
	.st0{display:inline;fill:none;stroke:#808080;stroke-width:1.4682;stroke-miterlimit:10;}
	.st1{fill:#0000001E;}
	.st2{fill-rule:evenodd;clip-rule:evenodd;fill:#0000001E;}
	.st3{display:none;}
]]>
</style>
<g id="Capa_2">
	<g>
		<path class="st2" d="M70.9,70.2c-0.5,0-0.9,0-1.4,0c-0.4-0.1-0.9-0.2-1.3-0.4c-1.5-0.6-2.7-1.6-3.7-2.8c-2.9-3.3-5.2-7-6.8-11.1
			c-1.7-4.5-2.7-9.1-2.4-14c0.2-2.9,0.9-5.7,2.3-8.2c2.1-3.6,5.1-6,9.2-6.9c1.7-0.4,3.3-0.6,5-0.1c1.6,0.5,3.3,1.1,4.9,1.6
			c1.1,0.4,2.3,0.8,3.5,0.5c1.1-0.4,2.1-0.8,3.2-1.1c2.4-0.9,4.8-1.6,7.4-1.3c3.3,0.4,6.3,1.6,8.7,4c0.5,0.5,1,1.1,1.4,1.7
			c-1.3,0.9-2.5,1.9-3.4,3.1c-2.4,2.9-3.2,6.3-2.6,10c0.3,2.2,1.2,4.3,2.7,6c1.3,1.5,2.8,2.6,4.5,3.5c0.3,0.1,0.4,0.2,0.3,0.6
			c-0.4,1-0.8,2.1-1.2,3.1c-1.6,3.4-3.6,6.4-6.1,9.1c-0.9,1-2,1.9-3.4,2.3c-2,0.7-3.9,0.4-5.7-0.4c-1.1-0.4-2.3-0.9-3.5-1.2
			c-2.2-0.6-4.4-0.3-6.5,0.4c-1.3,0.5-2.5,0.9-3.7,1.4C71.7,70.1,71.3,70.1,70.9,70.2z"/>
		<path class="st2" d="M90.2,12.3c0,0.9,0.1,1.9,0,2.8c-0.5,3.3-2.1,6-4.7,8.1c-2,1.6-4.2,2.5-6.8,2.4c-0.1-1-0.1-2,0.1-2.9
			c0.8-3.5,2.6-6.3,5.6-8.3c1.5-1,3.2-1.7,5.1-2c0.1,0,0.1-0.1,0.2-0.1C89.9,12.3,90.1,12.3,90.2,12.3z"/>
	</g>
</g>
<g id="Capa_3" class="st3">
</g>
</svg>
