<?xml version="1.0" encoding="utf-8"?>
<!-- Generator: Adobe Illustrator 16.0.3, SVG Export Plug-In . SVG Version: 6.00 Build 0)  -->
<!DOCTYPE svg PUBLIC "-//W3C//DTD SVG 1.1//EN" "http://www.w3.org/Graphics/SVG/1.1/DTD/svg11.dtd">
<svg version="1.1" id="Capa_1" xmlns="http://www.w3.org/2000/svg" xmlns:xlink="http://www.w3.org/1999/xlink" x="0px" y="0px"
	 width="52px" height="62px" viewBox="0 0 52 62" style="enable-background:new 0 0 52 62;" xml:space="preserve">
<style type="text/css">
<![CDATA[
	.st0{fill:url(#SVGID_1_);}
]]>
</style>
<linearGradient id="SVGID_1_" gradientUnits="userSpaceOnUse" x1="7.9375" y1="8.2002" x2="44.0214" y2="44.284">
	<stop  offset="0" style="stop-color:#95D600"/>
	<stop  offset="1" style="stop-color:#00C4B3"/>
</linearGradient>
<path class="st0" d="M51,23.7c0-1-0.1-1.9-0.3-2.8c-0.4-2-1-4-1.9-5.9c-1.3-2.8-3.2-5.3-5.5-7.5c-1.4-1.4-3-2.5-4.6-3.5
	c-1.6-0.9-3.2-1.6-4.9-2.2c-1.3-0.4-2.6-0.7-4-0.9c-1-0.2-2-0.2-3-0.3c-0.2,0-0.5,0-0.7,0c0,0,0,0,0,0c-0.8,0-1.6,0-2.5,0.1
	c-1.2,0.1-2.4,0.3-3.6,0.6c-2.2,0.5-4.2,1.4-6.2,2.4c-1.9,1.1-3.7,2.4-5.3,3.9C6.7,9.4,5.2,11.3,4,13.5c-1,1.8-1.8,3.7-2.3,5.7
	c-0.3,1-0.5,2.1-0.6,3.2C1.1,22.9,1,23.4,1,23.9c0,0.2,0,0.5,0,0.7v0.1c0,0.7,0,1.4,0.1,2.2c0.1,1,0.3,2,0.5,3.1
	c0.5,2,1.2,4,2.2,5.8c1.1,2,2.5,3.9,4.1,5.7c0.5,0.5,1,1,1.5,1.5c0.2,0.2,0.5,0.5,0.7,0.7l1.2,1.2c1.1,1.1,2.2,2.2,3.3,3.4
	c1.3,1.3,2.4,2.5,3.3,3.6c1,1.2,2,2.4,2.9,3.7c1.1,1.5,2,3,3.1,4.7l0.2,0.3c0.5,0.9,1.3,1,1.8,1c0.5,0,1.2-0.2,1.8-1l0.6-0.9
	c0.4-0.7,0.8-1.3,1.3-2c1.5-2.3,3.4-4.7,5.6-7.2c0.9-1,1.9-2,3-3.2c0.7-0.7,1.3-1.3,2-2c0.6-0.6,1.2-1.2,1.8-1.7
	c0.2-0.2,0.5-0.5,0.7-0.7c0.8-0.8,1.7-1.7,2.5-2.6c1.3-1.5,2.4-3.2,3.3-4.9c0.9-1.8,1.6-3.6,2-5.6c0.3-1.4,0.5-2.8,0.5-4.3
	C51,24.8,51,24.3,51,23.7z M26,36.3c-5.8,0-10.5-4.7-10.5-10.5c0-5.8,4.7-10.5,10.5-10.5s10.5,4.7,10.5,10.5
	C36.4,31.7,31.8,36.3,26,36.3z"/>
</svg>
