<?xml version="1.0" encoding="utf-8"?>
<!-- Generator: Adobe Illustrator 16.0.3, SVG Export Plug-In . SVG Version: 6.00 Build 0)  -->
<!DOCTYPE svg PUBLIC "-//W3C//DTD SVG 1.1//EN" "http://www.w3.org/Graphics/SVG/1.1/DTD/svg11.dtd">
<svg version="1.1" id="Capa_1" xmlns="http://www.w3.org/2000/svg" xmlns:xlink="http://www.w3.org/1999/xlink" x="0px" y="0px"
	 width="24px" height="24px" viewBox="0 0 24 24" style="enable-background:new 0 0 24 24;" xml:space="preserve">
<style type="text/css">
<![CDATA[
	.st0{fill:#acff6f;}
]]>
</style>
<linearGradient id="SVGID_1_" gradientUnits="userSpaceOnUse" x1="5.3545" y1="3.731" x2="18.6328" y2="17.0092">
	<stop  offset="0" style="stop-color:#95D600"/>
	<stop  offset="1" style="stop-color:#00C4B3"/>
</linearGradient>
<path class="st0" d="M12,23.1c-0.5,0-0.9-0.2-1.2-0.7l-0.1-0.1c-0.3-0.6-0.7-1.1-1-1.6c-0.3-0.4-0.6-0.8-1-1.2
	c-0.3-0.4-0.7-0.8-1.1-1.2c-0.4-0.4-0.8-0.8-1.1-1.1l-0.7-0.7c-0.1-0.1-0.3-0.3-0.4-0.4c-0.6-0.6-1.1-1.3-1.5-2.1
	c-0.4-0.7-0.6-1.4-0.8-2.2c-0.1-0.4-0.1-0.8-0.2-1.1c0-0.3,0-0.6,0-0.8c0-0.1,0-0.2,0-0.3c0-0.2,0-0.4,0-0.6c0-0.4,0.1-0.8,0.2-1.2
	C3.3,7,3.5,6.3,3.9,5.7c0.4-0.8,1-1.5,1.7-2.2C6.1,3,6.8,2.5,7.5,2.1C8.2,1.7,9,1.4,9.8,1.2c0.4-0.1,0.9-0.2,1.3-0.2
	c0.3,0,0.6,0,0.9,0l0.3,0c0.4,0,0.8,0,1.1,0.1c0.5,0.1,1,0.2,1.5,0.4c0.6,0.2,1.2,0.5,1.8,0.8c0.6,0.4,1.2,0.8,1.7,1.3
	c0.8,0.8,1.5,1.7,2,2.8c0.3,0.7,0.6,1.4,0.7,2.2c0.1,0.3,0.1,0.7,0.1,1.1c0,0.2,0,0.4,0,0.6c0,0.6-0.1,1.1-0.2,1.6
	c-0.2,0.7-0.4,1.4-0.8,2.1c-0.3,0.6-0.7,1.2-1.2,1.8c-0.3,0.3-0.6,0.6-0.9,0.9L16.7,18c-0.4,0.4-0.7,0.7-1,1.1
	c-0.8,0.8-1.4,1.6-1.9,2.4c-0.1,0.2-0.3,0.4-0.4,0.6l-0.2,0.4C12.9,22.9,12.5,23.1,12,23.1z M12,2.2c-0.3,0-0.5,0-0.8,0
	c-0.4,0-0.8,0.1-1.1,0.2C9.4,2.6,8.8,2.9,8.1,3.2C7.5,3.6,7,4,6.5,4.5C5.9,5,5.4,5.6,5,6.3C4.7,6.9,4.5,7.5,4.3,8.1
	c-0.1,0.3-0.1,0.7-0.2,1c0,0.2,0,0.4,0,0.5c0,0.1,0,0.1,0,0.2c0,0.3,0,0.5,0,0.8c0,0.3,0.1,0.6,0.2,1c0.1,0.6,0.4,1.3,0.7,1.8
	c0.3,0.6,0.8,1.2,1.3,1.8c0.1,0.1,0.3,0.3,0.4,0.4l0.7,0.7c0.4,0.4,0.8,0.8,1.2,1.2c0.4,0.5,0.8,0.9,1.2,1.3c0.4,0.4,0.7,0.9,1,1.3
	c0.4,0.5,0.7,1.1,1.1,1.6l0.1,0.2c0,0,0,0,0,0l0.2-0.4c0.2-0.3,0.3-0.5,0.4-0.7c0.5-0.8,1.2-1.7,2-2.5c0.3-0.3,0.7-0.7,1-1.1
	l1.5-1.5c0.3-0.3,0.6-0.5,0.8-0.9c0.4-0.5,0.8-1,1-1.5c0.3-0.6,0.5-1.1,0.6-1.8c0.1-0.4,0.2-0.9,0.2-1.4c0-0.2,0-0.3,0-0.5
	c0-0.3,0-0.6-0.1-0.9c-0.1-0.6-0.3-1.3-0.6-1.9c-0.4-0.9-1-1.7-1.7-2.4C17,4,16.5,3.6,16,3.3c-0.5-0.3-1-0.5-1.5-0.7
	c-0.4-0.1-0.8-0.2-1.3-0.3c-0.3,0-0.6-0.1-1-0.1L12,2.2z M12,14.5c-2.3,0-4.2-1.9-4.2-4.2C7.8,7.9,9.7,6,12,6c2.3,0,4.2,1.9,4.2,4.2
	C16.2,12.6,14.3,14.5,12,14.5z M12,7.3c-1.6,0-2.9,1.3-2.9,2.9s1.3,2.9,2.9,2.9c1.6,0,2.9-1.3,2.9-2.9S13.6,7.3,12,7.3z"/>
</svg>
