<?xml version="1.0" encoding="utf-8"?>
<!-- Generator: Adobe Illustrator 16.0.3, SVG Export Plug-In . SVG Version: 6.00 Build 0)  -->
<!DOCTYPE svg PUBLIC "-//W3C//DTD SVG 1.1//EN" "http://www.w3.org/Graphics/SVG/1.1/DTD/svg11.dtd">
<svg version="1.1" id="Capa_1" xmlns="http://www.w3.org/2000/svg" xmlns:xlink="http://www.w3.org/1999/xlink" x="0px" y="0px"
	 width="16px" height="16px" viewBox="0 0 16 16" style="enable-background:new 0 0 16 16;" xml:space="preserve">
<style type="text/css">
<![CDATA[
	.st0{fill:#ACFF6F;}
]]>
</style>
<g>
	<g>
		<path class="st0" d="M8,0.9C4.1,0.9,0.9,4.1,0.9,8s3.2,7.1,7.1,7.1c3.9,0,7.1-3.2,7.1-7.1S11.9,0.9,8,0.9z M9.8,5.4
			c-0.3,0-0.7,0-0.9,0S8.6,5.6,8.6,5.8c0,0.1,0,0.9,0,0.9s1.1,0,1.2,0C9.8,7.4,9.7,8,9.7,8H8.6v3.9H6.9V8H6.1V6.7h0.8
			c0,0,0-0.9,0-1.1c0-0.2,0-1.5,1.7-1.5c0.2,0,0.8,0,1.2,0C9.8,4.6,9.8,5.3,9.8,5.4z"/>
	</g>
	<g>
		<path class="st0" d="M93.9,0.9c-3.9,0-7.1,3.2-7.1,7.1s3.2,7.1,7.1,7.1c3.9,0,7.1-3.2,7.1-7.1S97.8,0.9,93.9,0.9z M98.4,5.3
			c-0.2,0.3-0.5,0.6-0.9,0.9c0,0,0,0,0,0.1c0,0.1,0,0.2,0,0.4c0,0.2,0,0.4-0.1,0.6c-0.1,0.4-0.2,0.8-0.3,1.2c-0.2,0.6-0.6,1.2-1,1.6
			c-0.7,0.7-1.5,1.2-2.5,1.5c-0.2,0.1-0.4,0.1-0.7,0.1c-0.3,0-0.6,0-0.9,0c-0.9,0-1.8-0.3-2.6-0.8c0,0,0,0,0,0
			c0.6,0.1,1.2,0,1.8-0.2c0.3-0.1,0.8-0.4,0.9-0.5c-0.6,0-1-0.3-1.4-0.7c-0.1-0.2-0.3-0.5-0.3-0.6c0.3,0,0.5,0,0.8,0
			c-0.5-0.1-0.9-0.4-1.2-0.8c-0.2-0.3-0.3-0.7-0.3-1C89.9,7,90,7,90.1,7c0.1,0,0.2,0.1,0.3,0.1c0.1,0,0.2,0,0.3,0
			C90.2,6.9,90,6.5,89.9,6c-0.1-0.5,0-0.9,0.2-1.3c0.5,0.6,1,1,1.7,1.4c0.7,0.3,1.4,0.5,2.1,0.6c0,0,0,0,0-0.1c0-0.2,0-0.4,0-0.6
			c0.1-0.5,0.3-0.8,0.6-1.2c0.3-0.2,0.6-0.4,0.9-0.4C96,4.3,96.5,4.5,97,4.9c0,0,0,0,0.1,0c0.4-0.1,0.8-0.2,1.1-0.4c0,0,0,0,0,0
			c-0.1,0.2-0.2,0.4-0.3,0.6c-0.1,0.2-0.3,0.3-0.5,0.4c0.2,0,0.4-0.1,0.5-0.1C98.1,5.4,98.2,5.3,98.4,5.3
			C98.4,5.2,98.4,5.2,98.4,5.3z"/>
	</g>
	<g>
		<g>
			<path class="st0" d="M36.6,6.6c-0.8,0-1.4,0.6-1.4,1.4c0,0.8,0.6,1.4,1.4,1.4C37.4,9.4,38,8.8,38,8C38,7.2,37.4,6.6,36.6,6.6z"/>
		</g>
		<g>
			<path class="st0" d="M38.4,4.6h-3.5c-0.9,0-1.6,0.7-1.6,1.6v3.5c0,0.9,0.7,1.6,1.6,1.6h3.5c0.9,0,1.6-0.7,1.6-1.6V6.3
				C40,5.4,39.3,4.6,38.4,4.6z M36.6,10.1c-1.2,0-2.1-0.9-2.1-2.1s0.9-2.1,2.1-2.1c1.2,0,2.1,0.9,2.1,2.1S37.8,10.1,36.6,10.1z
				 M38.8,6.3c-0.3,0-0.5-0.2-0.5-0.5s0.2-0.5,0.5-0.5s0.5,0.2,0.5,0.5S39.1,6.3,38.8,6.3z"/>
		</g>
		<g>
			<path class="st0" d="M36.6,0.9c-3.9,0-7.1,3.2-7.1,7.1s3.2,7.1,7.1,7.1c3.9,0,7.1-3.2,7.1-7.1S40.5,0.9,36.6,0.9z M40.7,9.7
				c0,1.3-1.1,2.4-2.4,2.4h-3.5c-1.3,0-2.4-1.1-2.4-2.4V6.3c0-1.3,1.1-2.4,2.4-2.4h3.5c1.3,0,2.4,1.1,2.4,2.4V9.7z"/>
		</g>
	</g>
	<g>
		<path class="st0" d="M65.3,0.9c-3.9,0-7.1,3.2-7.1,7.1s3.2,7.1,7.1,7.1c3.9,0,7.1-3.2,7.1-7.1S69.2,0.9,65.3,0.9z M68.6,6.9
			c0,0.6-0.2,1.1-0.4,1.6c-0.3,0.6-0.7,1-1.3,1.3C66.5,9.9,66,10,65.6,9.9c-0.3-0.1-0.6-0.2-0.8-0.5c0,0,0,0,0,0
			c-0.1,0.4-0.2,0.8-0.3,1.2c-0.1,0.4-0.3,0.8-0.5,1.1c-0.1,0.2-0.3,0.5-0.5,0.7c0,0-0.1,0-0.1,0c0,0,0,0,0-0.1
			c-0.1-0.6-0.1-1.2,0-1.8c0.1-0.5,0.2-0.9,0.3-1.4c0.1-0.5,0.2-0.9,0.3-1.4c0,0,0-0.1,0-0.1c-0.2-0.5-0.2-0.9,0-1.4
			c0.1-0.2,0.2-0.4,0.5-0.5c0.2-0.1,0.3-0.1,0.5-0.1c0.3,0,0.5,0.3,0.5,0.6c0,0.2,0,0.5-0.1,0.7c-0.1,0.4-0.2,0.8-0.3,1.2
			c0,0.2-0.1,0.4,0,0.5c0.1,0.3,0.4,0.5,0.7,0.5c0.3,0,0.6-0.1,0.8-0.3c0.3-0.2,0.5-0.6,0.6-0.9c0.2-0.5,0.3-1.1,0.2-1.7
			c-0.1-0.7-0.5-1.2-1.1-1.5c-0.7-0.3-1.5-0.2-2.2,0.2c-0.7,0.4-1.1,1-1.2,1.8c0,0.2,0,0.4,0,0.6c0,0.2,0.1,0.4,0.3,0.6
			c0.1,0.1,0.1,0.2,0.1,0.3c0,0.1-0.1,0.2-0.1,0.4c0,0.2-0.1,0.2-0.3,0.1c-0.4-0.2-0.6-0.5-0.8-0.8c-0.3-0.7-0.3-1.4,0-2.1
			c0.4-1,1.1-1.6,2.1-1.9c0.8-0.2,1.6-0.3,2.4,0c0.9,0.3,1.6,1,1.9,1.9C68.6,6.2,68.6,6.5,68.6,6.9z"/>
	</g>
</g>
</svg>
