<?xml version="1.0" encoding="utf-8"?>
<!-- Generator: Adobe Illustrator 16.0.3, SVG Export Plug-In . SVG Version: 6.00 Build 0)  -->
<!DOCTYPE svg PUBLIC "-//W3C//DTD SVG 1.1//EN" "http://www.w3.org/Graphics/SVG/1.1/DTD/svg11.dtd">
<svg version="1.1" id="Capa_1" xmlns="http://www.w3.org/2000/svg" xmlns:xlink="http://www.w3.org/1999/xlink" x="0px" y="0px"
	 width="16px" height="16px" viewBox="0 0 16 16" style="enable-background:new 0 0 16 16;" xml:space="preserve">
<style type="text/css">
<![CDATA[
	.st0{fill:#ACFF6F;}
]]>
</style>
<g>
	<g>
		<path class="st0" d="M-49.3,0.9c-3.9,0-7.1,3.2-7.1,7.1s3.2,7.1,7.1,7.1c3.9,0,7.1-3.2,7.1-7.1S-45.4,0.9-49.3,0.9z M-47.5,5.4
			c-0.3,0-0.7,0-0.9,0s-0.4,0.2-0.4,0.3c0,0.1,0,0.9,0,0.9s1.1,0,1.2,0c0,0.7-0.2,1.3-0.2,1.3h-1.1v3.9h-1.6V8h-0.8V6.7h0.8
			c0,0,0-0.9,0-1.1c0-0.2,0-1.5,1.7-1.5c0.2,0,0.8,0,1.2,0C-47.5,4.6-47.5,5.3-47.5,5.4z"/>
	</g>
	<g>
		<path class="st0" d="M36.6,0.9c-3.9,0-7.1,3.2-7.1,7.1s3.2,7.1,7.1,7.1c3.9,0,7.1-3.2,7.1-7.1S40.5,0.9,36.6,0.9z M41.1,5.3
			c-0.2,0.3-0.5,0.6-0.9,0.9c0,0,0,0,0,0.1c0,0.1,0,0.2,0,0.4c0,0.2,0,0.4-0.1,0.6C40.1,7.6,40,8,39.8,8.4c-0.2,0.6-0.6,1.2-1,1.6
			c-0.7,0.7-1.5,1.2-2.5,1.5c-0.2,0.1-0.4,0.1-0.7,0.1c-0.3,0-0.6,0-0.9,0c-0.9,0-1.8-0.3-2.6-0.8c0,0,0,0,0,0
			c0.6,0.1,1.2,0,1.8-0.2c0.3-0.1,0.8-0.4,0.9-0.5c-0.6,0-1-0.3-1.4-0.7c-0.1-0.2-0.3-0.5-0.3-0.6c0.3,0,0.5,0,0.8,0
			c-0.5-0.1-0.9-0.4-1.2-0.8c-0.2-0.3-0.3-0.7-0.3-1C32.6,7,32.7,7,32.8,7c0.1,0,0.2,0.1,0.3,0.1c0.1,0,0.2,0,0.3,0
			c-0.4-0.3-0.7-0.6-0.8-1.1c-0.1-0.5,0-0.9,0.2-1.3c0.5,0.6,1,1,1.7,1.4c0.7,0.3,1.4,0.5,2.1,0.6c0,0,0,0,0-0.1c0-0.2,0-0.4,0-0.6
			c0.1-0.5,0.3-0.8,0.6-1.2c0.3-0.2,0.6-0.4,0.9-0.4c0.6-0.1,1.2,0.1,1.6,0.5c0,0,0,0,0.1,0c0.4-0.1,0.8-0.2,1.1-0.4c0,0,0,0,0,0
			c-0.1,0.2-0.2,0.4-0.3,0.6c-0.1,0.2-0.3,0.3-0.5,0.4c0.2,0,0.4-0.1,0.5-0.1C40.8,5.4,40.9,5.3,41.1,5.3
			C41.1,5.2,41.1,5.2,41.1,5.3z"/>
	</g>
	<g>
		<g>
			<path class="st0" d="M-20.7,6.6C-21.4,6.6-22,7.2-22,8c0,0.8,0.6,1.4,1.4,1.4c0.8,0,1.4-0.6,1.4-1.4C-19.3,7.2-19.9,6.6-20.7,6.6
				z"/>
		</g>
		<g>
			<path class="st0" d="M-18.9,4.6h-3.5c-0.9,0-1.6,0.7-1.6,1.6v3.5c0,0.9,0.7,1.6,1.6,1.6h3.5c0.9,0,1.6-0.7,1.6-1.6V6.3
				C-17.3,5.4-18,4.6-18.9,4.6z M-20.7,10.1c-1.2,0-2.1-0.9-2.1-2.1s0.9-2.1,2.1-2.1c1.2,0,2.1,0.9,2.1,2.1S-19.5,10.1-20.7,10.1z
				 M-18.5,6.3c-0.3,0-0.5-0.2-0.5-0.5s0.2-0.5,0.5-0.5S-18,5.5-18,5.8S-18.2,6.3-18.5,6.3z"/>
		</g>
		<g>
			<path class="st0" d="M-20.7,0.9c-3.9,0-7.1,3.2-7.1,7.1s3.2,7.1,7.1,7.1c3.9,0,7.1-3.2,7.1-7.1S-16.8,0.9-20.7,0.9z M-16.6,9.7
				c0,1.3-1.1,2.4-2.4,2.4h-3.5c-1.3,0-2.4-1.1-2.4-2.4V6.3c0-1.3,1.1-2.4,2.4-2.4h3.5c1.3,0,2.4,1.1,2.4,2.4V9.7z"/>
		</g>
	</g>
	<g>
		<path class="st0" d="M8,0.9C4.1,0.9,0.9,4.1,0.9,8s3.2,7.1,7.1,7.1c3.9,0,7.1-3.2,7.1-7.1S11.9,0.9,8,0.9z M11.3,6.9
			c0,0.6-0.2,1.1-0.4,1.6c-0.3,0.6-0.7,1-1.3,1.3C9.2,9.9,8.7,10,8.3,9.9C7.9,9.8,7.6,9.6,7.4,9.3c0,0,0,0,0,0
			c-0.1,0.4-0.2,0.8-0.3,1.2c-0.1,0.4-0.3,0.8-0.5,1.1c-0.1,0.2-0.3,0.5-0.5,0.7c0,0-0.1,0-0.1,0c0,0,0,0,0-0.1
			c-0.1-0.6-0.1-1.2,0-1.8C6.2,10,6.3,9.6,6.4,9.1c0.1-0.5,0.2-0.9,0.3-1.4c0,0,0-0.1,0-0.1c-0.2-0.5-0.2-0.9,0-1.4
			C6.8,6,6.9,5.8,7.1,5.7c0.2-0.1,0.3-0.1,0.5-0.1c0.3,0,0.5,0.3,0.5,0.6c0,0.2,0,0.5-0.1,0.7C8,7.3,7.9,7.7,7.8,8.1
			c0,0.2-0.1,0.4,0,0.5C7.9,8.9,8.1,9,8.5,9.1C8.8,9.1,9,9,9.3,8.8c0.3-0.2,0.5-0.6,0.6-0.9c0.2-0.5,0.3-1.1,0.2-1.7
			C10,5.5,9.6,4.9,8.9,4.7C8.2,4.4,7.5,4.5,6.8,4.8c-0.7,0.4-1.1,1-1.2,1.8c0,0.2,0,0.4,0,0.6c0,0.2,0.1,0.4,0.3,0.6
			C6,8,6,8.1,6,8.2c0,0.1-0.1,0.2-0.1,0.4c0,0.2-0.1,0.2-0.3,0.1C5.2,8.5,5,8.2,4.8,7.8c-0.3-0.7-0.3-1.4,0-2.1C5.2,4.7,6,4.1,7,3.8
			c0.8-0.2,1.6-0.3,2.4,0c0.9,0.3,1.6,1,1.9,1.9C11.3,6.2,11.3,6.5,11.3,6.9z"/>
	</g>
</g>
</svg>
