<?xml version="1.0" encoding="utf-8"?>
<!-- Generator: Adobe Illustrator 16.0.3, SVG Export Plug-In . SVG Version: 6.00 Build 0)  -->
<!DOCTYPE svg PUBLIC "-//W3C//DTD SVG 1.1//EN" "http://www.w3.org/Graphics/SVG/1.1/DTD/svg11.dtd">
<svg version="1.1" id="Capa_1" xmlns="http://www.w3.org/2000/svg" xmlns:xlink="http://www.w3.org/1999/xlink" x="0px" y="0px"
	 width="24px" height="24px" viewBox="0 0 24 24" style="enable-background:new 0 0 24 24;" xml:space="preserve">
<style type="text/css">
<![CDATA[
	.st0{fill:#acff6f;}
]]>
</style>
<path class="st0" d="M9.6,11.6c0,0.9-0.7,1.5-1.6,1.5c-0.9,0-1.6-0.7-1.6-1.5C6.5,10.7,7.2,10,8,10C8.9,10,9.6,10.7,9.6,11.6z
	 M13.6,11.6c0,0.9-0.7,1.5-1.6,1.5c-0.9,0-1.6-0.7-1.6-1.5c0-0.9,0.7-1.6,1.6-1.6C12.9,10,13.6,10.7,13.6,11.6z M17.5,11.6
	c0,0.9-0.7,1.5-1.6,1.5c-0.9,0-1.6-0.7-1.6-1.5c0-0.9,0.7-1.6,1.6-1.6C16.8,10,17.5,10.7,17.5,11.6z M19,20.8c-0.1,0-0.2,0-0.3-0.1
	l-3.5-1.5c-1.1,0.3-2.2,0.5-3.3,0.5c-5.4,0-9.8-3.7-9.8-8.3c0-4.6,4.4-8.3,9.8-8.3s9.8,3.7,9.8,8.3c0,2.3-1.2,4.5-3.2,6.1l1,2.4
	c0.1,0.2,0,0.5-0.1,0.7C19.4,20.8,19.2,20.8,19,20.8z M15.4,17.9c0.1,0,0.2,0,0.3,0.1l2.2,1l-0.6-1.4c-0.1-0.3,0-0.6,0.2-0.8
	c1.9-1.3,3-3.3,3-5.3c0-3.9-3.8-7-8.5-7s-8.5,3.1-8.5,7c0,3.9,3.8,7,8.5,7c1.1,0,2.1-0.2,3.1-0.5C15.2,17.9,15.3,17.9,15.4,17.9z"/>
</svg>
