<?xml version="1.0" encoding="utf-8"?>
<!-- Generator: Adobe Illustrator 16.0.3, SVG Export Plug-In . SVG Version: 6.00 Build 0)  -->
<!DOCTYPE svg PUBLIC "-//W3C//DTD SVG 1.1//EN" "http://www.w3.org/Graphics/SVG/1.1/DTD/svg11.dtd">
<svg version="1.1" id="Capa_1" xmlns="http://www.w3.org/2000/svg" xmlns:xlink="http://www.w3.org/1999/xlink" x="0px" y="0px"
	 width="20px" height="20px" viewBox="0 0 20 20" style="enable-background:new 0 0 20 20;" xml:space="preserve">
<style type="text/css">
<![CDATA[
	.st0{fill:#acff6f;}
]]>
</style>

<path class="st0" d="M16.6,16.2v2c0,0.4-0.3,0.7-0.7,0.7H4.1c-0.4,0-0.7-0.3-0.7-0.7v-2C3.4,14,4.9,12,7,11.1c0.9,0.6,1.9,0.9,3,0.9
	s2.1-0.3,3-0.9C15.1,12,16.6,14,16.6,16.2z M14.2,5.3c0-2.3-1.9-4.2-4.2-4.2l0,0C7.7,1.1,5.8,3,5.8,5.3v1.2c0,2.3,1.9,4.2,4.2,4.2
	l0,0c2.3,0,4.2-1.9,4.2-4.2V5.3z"/>
</svg>
