<?xml version="1.0" encoding="utf-8"?>
<!-- Generator: Adobe Illustrator 16.0.3, SVG Export Plug-In . SVG Version: 6.00 Build 0)  -->
<!DOCTYPE svg PUBLIC "-//W3C//DTD SVG 1.1//EN" "http://www.w3.org/Graphics/SVG/1.1/DTD/svg11.dtd">
<svg version="1.1" id="Capa_1" xmlns="http://www.w3.org/2000/svg" xmlns:xlink="http://www.w3.org/1999/xlink" x="0px" y="0px"
	 width="20px" height="20px" viewBox="0 0 20 20" style="enable-background:new 0 0 20 20;" xml:space="preserve">
<style type="text/css">
<![CDATA[
	.st0{fill:#acff6f;}
]]>
</style>

<path class="st0" d="M16.6,15.6c2-1.6,3.2-3.8,3.2-6.1c0-4.6-4.4-8.3-9.8-8.3c-5.4,0-9.8,3.7-9.8,8.3s4.4,8.3,9.8,8.3
	c1.1,0,2.2-0.2,3.3-0.5l3.5,1.5c0.1,0,0.2,0.1,0.3,0.1c0.2,0,0.3-0.1,0.5-0.2c0.2-0.2,0.2-0.5,0.1-0.7L16.6,15.6z M6,11.1
	c-0.9,0-1.6-0.7-1.6-1.5C4.5,8.7,5.2,8,6,8c0.9,0,1.6,0.7,1.6,1.6C7.6,10.4,6.9,11.1,6,11.1z M10,11.1c-0.9,0-1.6-0.7-1.6-1.5
	C8.4,8.7,9.1,8,10,8s1.6,0.7,1.6,1.6C11.6,10.4,10.9,11.1,10,11.1z M14,11.1c-0.9,0-1.6-0.7-1.6-1.5C12.4,8.7,13.1,8,14,8
	c0.9,0,1.6,0.7,1.6,1.6C15.5,10.4,14.8,11.1,14,11.1z"/>
</svg>
