<?xml version="1.0" encoding="utf-8"?>
<!-- Generator: Adobe Illustrator 16.0.3, SVG Export Plug-In . SVG Version: 6.00 Build 0)  -->
<!DOCTYPE svg PUBLIC "-//W3C//DTD SVG 1.1//EN" "http://www.w3.org/Graphics/SVG/1.1/DTD/svg11.dtd">
<svg version="1.1" id="Capa_1" xmlns="http://www.w3.org/2000/svg" xmlns:xlink="http://www.w3.org/1999/xlink" x="0px" y="0px"
	 width="24px" height="24px" viewBox="0 0 24 24" style="enable-background:new 0 0 24 24;" xml:space="preserve">
<style type="text/css">
<![CDATA[
	.st0{fill:#acff6f;}
]]>
</style>
<linearGradient id="SVGID_1_" gradientUnits="userSpaceOnUse" x1="4.4468" y1="4.0186" x2="20.4803" y2="20.0521">
	<stop  offset="0" style="stop-color:#95D600"/>
	<stop  offset="1" style="stop-color:#00C4B3"/>
</linearGradient>
<path class="st0" d="M16.8,22.6H8.1c-1.5,0-2.8-1.2-2.8-2.8V4.2c0-1.5,1.2-2.8,2.8-2.8h8.7c1.5,0,2.8,1.2,2.8,2.8v15.6
	C19.6,21.4,18.3,22.6,16.8,22.6z M8.1,2.8c-0.8,0-1.4,0.6-1.4,1.4v15.6c0,0.8,0.6,1.4,1.4,1.4h8.7c0.8,0,1.4-0.6,1.4-1.4V4.2
	c0-0.8-0.6-1.4-1.4-1.4H8.1z M15.6,14.4H9.4c-0.6,0-1.1-0.5-1.1-1.1v-8c0-0.6,0.5-1.1,1.1-1.1h6.2c0.6,0,1.1,0.5,1.1,1.1v8
	C16.6,13.9,16.1,14.4,15.6,14.4z M9.6,13.1h5.7V5.6H9.6V13.1z M12.5,16.1c-0.8,0-1.5,0.7-1.5,1.5c0,0.8,0.7,1.5,1.5,1.5
	s1.5-0.6,1.5-1.5C13.9,16.7,13.3,16.1,12.5,16.1z"/>
</svg>
