<?xml version="1.0" encoding="utf-8"?>
<!-- Generator: Adobe Illustrator 16.0.3, SVG Export Plug-In . SVG Version: 6.00 Build 0)  -->
<!DOCTYPE svg PUBLIC "-//W3C//DTD SVG 1.1//EN" "http://www.w3.org/Graphics/SVG/1.1/DTD/svg11.dtd">
<svg version="1.1" id="Capa_1" xmlns="http://www.w3.org/2000/svg" xmlns:xlink="http://www.w3.org/1999/xlink" x="0px" y="0px"
	 width="198.2px" height="195.2px" viewBox="0 0 198.2 195.2" style="enable-background:new 0 0 198.2 195.2;" xml:space="preserve"
	>
<style type="text/css">
<![CDATA[
	.st0{fill-rule:evenodd;clip-rule:evenodd;fill:#3D3D3F;}
	.st1{fill:#E10079;}
	.st2{opacity:0.3;fill:#FFFFFF;}
	.st3{opacity:0.25;}
	.st4{opacity:0.53;}
	.st5{opacity:0.72;}
	.st6{fill-rule:evenodd;clip-rule:evenodd;fill:#111111;}
	.st7{clip-path:url(#SVGID_2_);}
	.st8{fill:#BD0926;stroke:#000000;stroke-width:3.0861;stroke-linejoin:round;}
	.st9{opacity:0.3;}
	.st10{fill:#FFD402;}
	.st11{fill:#FFFFFF;}
	.st12{fill:#62247F;}
	.st13{fill:none;}
	.st14{fill:#65C4E0;}
	.st15{fill:#00882F;}
]]>
</style>
<g>
	<g>
		<g>
			<path d="M163.7,25.1C163.7,25.1,163.7,25.1,163.7,25.1c0,0,0.1,0,0.1,0c0.7,0,1.3,0.1,2,0.2c0,0,0,0,0,0c0.7,0.1,1.1,0.4,2.1,0.7
				c5.1,0.1,4.4,4.7,4,9.7c-0.3,4,0.3,8.9-4.9,8.9c-0.1,0-0.2,0-0.3,0c-0.7-0.1-1.2-0.3-1.6-0.3c-0.5,0-0.9,0.1-1.6,0.5
				c-4.3,3,0.9,12.1,3.7,18.1c2.4,5.1,4.6,9.8,6.9,11.6c0.1,0,0.1,0,0.2,0c1.4,0,3-0.6,4.8-1.4c0.6-0.3,1-0.5,1.7-1.3
				c0.8-1,2.7-1.4,3.8-1.4c0.1,0,0.2,0,0.3,0c1.5,0.1,12.5,9.3,7.5,14.5c-1.2,0.8-1.4,1.1-2.5,2c0,0,0,0,0,0c-2,1.5-5.2,1.9-7.4,2.2
				c1.5,2.8,6,2.9,9.3,3.2c-0.4,1.1-0.5,2.3-1.1,3.2c-0.4,0-0.8,0.1-1.2,0.1c-4.9,0-8.7-3.5-12.8-6.3c-1.6-1.1-4-1.4-6.1-2.7
				c-6.1-4-13.1-12.5-16.8-22.9c-4.3-12-4.5-25.9-0.1-33.2C155.3,27.3,159.5,25.2,163.7,25.1C163.6,25.1,163.6,25.1,163.7,25.1
				 M163.7,21.1c-0.1,0-0.2,0-0.3,0c-5.5,0.1-10.9,3-13.4,7.2c-5,8.2-5,23.3-0.2,36.6c3.8,10.4,10.8,20,18.4,24.9
				c1.4,0.9,2.9,1.5,4.1,1.9c0.7,0.3,1.5,0.5,1.9,0.8c0.7,0.5,1.4,1,2.1,1.5c3.5,2.6,7.6,5.5,12.9,5.5c0.5,0,1.1,0,1.6-0.1
				c1.2-0.1,2.3-0.8,2.9-1.8c0.8-1.2,1.1-2.4,1.3-3.3c0.1-0.3,0.2-0.6,0.2-0.8c0.4-1.2,0.2-2.4-0.4-3.4c-0.3-0.5-0.8-0.9-1.3-1.2
				c0.2-0.2,0.4-0.3,0.8-0.6c0.2-0.2,0.5-0.4,0.7-0.6c2.5-2.5,3.1-6,1.7-9.6c-1.9-5.2-8.5-11.3-11.7-11.6c0,0-0.1,0-0.1,0
				c-0.2,0-0.3,0-0.5,0c-0.8,0-4.7,0.1-6.9,2.8c-0.1,0.1-0.2,0.2-0.2,0.2c0,0,0,0-0.1,0c-0.8,0.3-1.4,0.6-1.8,0.7
				c-1.6-2.2-3.6-6.5-4.8-9c-0.4-0.8-0.8-1.6-1.2-2.5c-1.2-2.5-3.9-8-3.8-10.2c0.1,0,0.1,0,0.2,0c0.2,0,0.4,0.1,0.6,0.1
				c0.2,0,0.3,0,0.5,0c3.6,0,6.3-1.6,7.7-4.6c0.9-2.1,1-4.4,1.1-6.4c0-0.5,0-1,0.1-1.5l0.1-0.9c0.3-3.8,0.6-7.7-1.9-10.6
				c-1.3-1.5-3.1-2.3-5.4-2.5c-0.1,0-0.2-0.1-0.3-0.1c-0.4-0.1-0.9-0.3-1.5-0.4c-0.1,0-0.2-0.1-0.4-0.1c-0.8-0.2-1.7-0.2-2.6-0.2
				c0,0-0.1,0-0.1,0C163.8,21.1,163.7,21.1,163.7,21.1L163.7,21.1z"/>
		</g>
		<g>
			<g>
				<defs>
					<path id="SVGID_1_" d="M163.6,57.4l-14.1-0.7l-23.3,3.7l1.7-3.8l3.2-5.7l0.1-2.9l-16-5.1l-24.5-3.7l-22.2,3.5l-0.5,4.2
						l4.6,11.1l-11.1,4.9l-11.4,8.4l-23.3,8.9L12.2,90.7l-7.4,10.6l1.3,5.1l7.5,8.6l15.1,6.7l1.2,7.9l6.1,16.5l-2.2,7.9l-2.8,15.6
						l1.4,16.1l5.9,4.3l13.5-3.3l11.2-6.4l10-6.8l11.4,2.3l8.6-0.8l11.9-1.9l3.5,3.5l18.9,9.3l14.8,1.2l6.5-3.4l1.2-5.8l-4.1-26.2
						l-1.8-7.9l3.7-13.4l2.4-14.4l-1.6-13.7L159,90.8l9-17.2l-0.2-12.2L163.6,57.4z M104.3,54c-2.1,0.3-4.1-1.3-4.4-3.7
						c-0.4-2.4,1-4.6,3.1-4.9c2.1-0.3,4.1,1.3,4.4,3.7S106.4,53.7,104.3,54z"/>
				</defs>
				<clipPath id="SVGID_2_">
					<use xlink:href="#SVGID_1_"  style="overflow:visible;"/>
				</clipPath>
				<g class="st7">
					<path class="st10" d="M76.3,41.1c-2.3,0.2-5.5-0.1-7.7,1c-0.5,0.2-0.7,0.7-0.9,1.4l52.1,1c-4.3-0.8-8.7-1.7-13-2.6
						c-2.5-0.6-4.8-1.5-7.2-2.4c-2.5-0.9-4.5,0-7-0.1C87.1,39.1,81.9,40.7,76.3,41.1z"/>
					<path class="st15" d="M129.7,46.2c-1.8-0.6-3.7-0.8-5.6-1.1c-1.4-0.2-2.8-0.5-4.3-0.7l-52.1-1c-0.3,1.2-0.1,2.9,0,3.7
						c0.3,1.9,2,3.9,3,6l57.9,1.1c0.6-0.4,1.3-0.7,1.9-1C130.4,51.5,131.5,46.7,129.7,46.2z"/>
					<path class="st14" d="M162.9,56.6c-5-0.8-10.7-0.7-15.7,0c-2.7,0.4-5.4,0.9-8.1,1.1c-2.1,0.2-5.6-0.4-7.4,0.8
						c-2.9,1.9-6.3-2.2-3.4-4.2c0.1,0,0.1-0.1,0.2-0.1l-57.9-1.1c0.6,1.4,0.9,2.7,0,4c-1.9,2.8-6.4,3.5-9.3,2.4
						c-1.9-0.7-3.5-1.8-5.4-2.5c-2.5-0.8-4.8-2.1-7.3-2.5c-0.7-0.1-1.2-0.4-1.5-0.8c-2.3-0.6-4.8-0.9-7.2-1.2l-14.2-0.3
						c-1.7,0.2-3.4,0.5-4.9,1.2c-0.7,0.3-1.9,1.3-3,2.3c-0.1,0.5-0.3,1.1-0.4,1.6c0,0.2-0.1,0.5-0.2,0.7c0.2,1.2,0.5,2.5,0.6,3.7
						l150.3,2.8C167.9,60.8,166.7,57.2,162.9,56.6z"/>
					<path class="st12" d="M17.9,61.8c0.2,1,0.3,2,0.3,2.9c0.1,2.3,0.1,4.6,0.9,6.7l148.2,2.7c0.1-0.5,0.2-1,0.3-1.5
						c0.3-2,0.8-5.1,0.6-8.1L17.9,61.8z"/>
					<path class="st1" d="M19.1,71.5c0.1,0.3,0.2,0.5,0.3,0.8c1.4,2.8-23.1,5.9-22.2,8.9l166.8,2.6c1.4-3.1,2.6-6.3,3.2-9.6
						L19.1,71.5z"/>
					<path class="st10" d="M-2.7,81.2c0.1,0.2,0.1,0.5,0.2,0.7c0.8,0.3,1.5,0.9,1.8,2c0.5,2.5,1.9,4.8,3.3,7l155.8,2.4
						c2.2-2.9,4.2-6.1,5.8-9.5L-2.7,81.2z"/>
					<path class="st15" d="M2.5,90.9c1.9,3.1-8.8,6.2-8.9,9.7l157.6,2.2c0.9-3.3,3.5-5.2,5.9-8c0.4-0.5,0.8-1,1.2-1.5L2.5,90.9z"/>
					<path class="st14" d="M151.2,102.9l-157.6-2.2c0,0,0,0.1,0,0.1c-0.1,3.1-1.1,5.9-1.4,8.9c0,0.2,0,0.4-0.1,0.6l159.5,2.2
						c-0.6-2.3-0.7-4.7-0.8-7C150.9,104.5,151,103.7,151.2,102.9z"/>
					<path class="st12" d="M151.7,112.5l-159.5-2.2c-0.3,3.2-0.7,6.5-0.8,9.6l159,2.2c0.5-3.1,0.9-6.2,1.3-9.3
						C151.8,112.8,151.7,112.6,151.7,112.5z"/>
					<path class="st1" d="M-8.6,119.9C-8.6,119.9-8.6,119.9-8.6,119.9c-0.1,3.2,38.7,6.5,39.2,9.7l117.5,2.2c0.3-1,0.6-2,0.9-2.9
						c0.6-2.2,1.1-4.4,1.5-6.7L-8.6,119.9z"/>
					<path class="st10" d="M30.6,129.6c0.1,0.4,0.1,0.8,0.2,1.2c0.4,2.9,1.6,5.7,2.5,8.5l112.2,2.1c0.4-3.3,1.5-6.5,2.6-9.6
						L30.6,129.6z"/>
					<path class="st15" d="M145.5,141.4l-112.2-2.1c0.2,0.6,0.4,1.2,0.6,1.8c0.7,2.5,1.9,5.2,2.2,7.9l110.2,2
						c-0.4-2.2-0.7-4.3-0.8-6.5C145.3,143.5,145.3,142.4,145.5,141.4z"/>
					<path class="st14" d="M36.1,150.5c-0.1,2.8-0.9,5.5-1.7,8.2l113.7,2.1c-0.6-3.2-1.4-6.4-1.9-9.7L36,149
						C36.1,149.5,36.1,150,36.1,150.5z"/>
					<path class="st12" d="M148.1,160.7l-113.7-2.1c-0.2,0.6-0.3,1.2-0.5,1.8c-0.2,0.7-0.6,1.2-1.1,1.5c-0.5,2.1-1.3,4-1.9,6.1
						c0,0.1,0,0.1-0.1,0.2l118.8,2.2c-0.2-2-0.5-4-0.8-6.1C148.6,163.1,148.4,161.9,148.1,160.7z"/>
					<path class="st1" d="M111.9,179.1c0.6-0.2,1.3-0.1,2,0.3l36.5,0.7c0.1-0.4,0.2-0.8,0.3-1.2c-0.2-1.7-0.8-3.5-0.8-5.1
						c-0.1-1.1-0.2-2.3-0.3-3.4l-118.8-2.2c-0.9,3.1-0.9,6.5-0.5,9.6l35.9,0.7c3.3-2.1,7.2-4.2,10.7-4.1c3,0,5.8,0.9,8.8,0.6
						c3.1-0.3,6.2-0.9,9.3-1.1c5.4-0.4,9.3,0.8,14.2,3C110.4,177.4,111.2,178.2,111.9,179.1z"/>
					<path class="st10" d="M59.4,183.8c1.2-1.2,2.6-2.3,4-3.4c0.8-0.6,1.8-1.3,2.8-1.9l-35.9-0.7c0,0.2,0.1,0.5,0.1,0.7
						c0.3,2.5,0.3,5.1,0.9,7.5c0.1,0.5,0.3,1,0.6,1.4l20.7,0.4C54.2,186,56.8,184.7,59.4,183.8z"/>
					<path class="st10" d="M114,179.5c1.4,0.8,2.5,2,3.7,3c1,0.7,2,1.4,3,2c0,0,0,0,0,0c1.5,0.8,3,1.4,4.5,2
						c4.8,1.6,9.7,2.6,14.7,2.2c4.4-0.3,8.2-1.1,9.6-5.9c0.3-0.9,0.5-1.9,0.7-2.8l-36.5-0.7C113.9,179.4,114,179.4,114,179.5z"/>
				</g>
			</g>
			<path class="st13" d="M41.5,139.9c-3.6,3.2-9.3,24.8-8.8,35.2c0.5,14.9,4.5,17.8,20.2,12.8c10.6-3.5,25-16,27.7-20.1
				C66.8,159.6,55.2,148.3,41.5,139.9L41.5,139.9z"/>
			<path class="st13" d="M139.3,134.7c4,2.9,12.1,24.7,12.9,35.5c1,15.3-2.8,18.8-19.5,15.1c-11.3-2.4-27.7-13.9-30.7-17.7
				C115.3,157.7,126.1,144.8,139.3,134.7L139.3,134.7z"/>
			<path class="st13" d="M150.5,100.3c6.7-6.5,14.9-18.9,17.2-25.7c4.8-14.2,1.6-19.1-13.9-19.2c-11.1-0.1-24.5,3.3-28.4,5.9
				C134.6,74.4,141.2,87.2,150.5,100.3L150.5,100.3z"/>
			<path class="st13" d="M73.1,57.4C69,45.4,62.7,41.5,79,39.4c15.8-2.1,32.1,0.2,46.5,4.5c12.3,3.6,6.9,6.4-0.1,17.5
				C107.9,60,90.5,58.8,73.1,57.4L73.1,57.4z"/>
			<path class="st13" d="M150.4,123.3c-3.9,32.1-34,55-67.2,51c-33.2-4-57.1-33.3-53.2-65.4C33.8,76.7,63.7,52.1,97,55.5
				C139.8,59.9,154.2,91.2,150.4,123.3z"/>
			<path class="st4" d="M133.6,70.3c8.7,12.4,11.4,28.5,9.5,44.7c-3.9,32.1-34,55-67.2,51c-13.7-1.7-25.9-7.6-35.1-16.4
				c9.6,13.2,24.7,22.5,42.4,24.6c33.2,4,63.3-18.8,67.2-51C152.8,103.1,148,83.3,133.6,70.3z"/>
			<path class="st2" d="M36.7,115c3.9-32.1,33.8-56.7,67.1-53.3c14,1.4,24.9,5.7,33.2,12c-8.7-9.6-21.8-16.3-39.9-18.1
				C63.7,52.1,33.8,76.7,30,108.8c-2.5,20.8,6.6,40.4,22.4,52.7C40.8,149.4,34.6,132.6,36.7,115z"/>
			<g>
				<path d="M99.5,50.1c-0.4-2.6,1.1-5,3.5-5.4l0,0c2.3-0.4,4.4,1.5,4.8,4.1l0,0c0.4,2.6-1.1,5-3.4,5.4l0,0l-0.1-0.4l-0.1-0.4
					c1.8-0.3,3.1-2.2,2.7-4.5l0,0c-0.4-2.3-2.2-3.7-4-3.4l0,0c-1.9,0.3-3.2,2.2-2.8,4.5l0,0c0.4,2.3,2.2,3.7,4.1,3.4l0,0l0.1,0.4
					l0.1,0.4C102.1,54.6,99.9,52.7,99.5,50.1L99.5,50.1z"/>
			</g>
			<path d="M104.5,45.1c1.5,0.5,2.6,1.8,2.9,3.7c0.4,2.4-1,4.5-3,4.8c-0.4,0.1-0.8,0-1.3,0c2.1-0.3,3.4-2.7,3-5.2
				C106,47,105.3,45.9,104.5,45.1L104.5,45.1z"/>
			<path d="M100.6,46.8c9.1-13.9,10.1-23.7,7.7-29.3c-1.2-3.1-3.5-4.8-5.8-5.1c-2.2-0.3-4.6,0.7-6.2,3.1c-2.6,4-3.2,11.6,1.6,23.3
				l-6,2.4c-5.7-14-4.7-23.6-1-29.3c3-4.6,7.8-6.5,12.4-5.9c4.4,0.6,8.7,3.7,11,9.1c3,7.3,2.1,19.2-8.3,35.2
				C103.7,53,98.6,50,100.6,46.8L100.6,46.8z"/>
			<path d="M151.8,102.3c-0.1-0.8-0.3-1.5-0.4-2.3c-1.4,0.9-2.8,1.7-4.3,2.5c0,0.2,0.1,0.4,0.1,0.5c1,6.6,1.1,13.5,0.2,20.5
				c-3,25.4-23.1,44.7-48,48.6c-5.4,0.8-10.9,1-16.6,0.3C56.2,169.2,35.8,149,32,124.6c-0.1-0.6-0.1-1.2-0.2-1.8
				c-1.6-0.1-3.1-0.8-4.7-1c0,0-0.1,0-0.1,0c0.1,1.2,0.3,2.3,0.4,3.5c4.2,26.6,26.2,48.2,54.9,51.7c6.1,0.7,12.1,0.6,17.9-0.3l0,0
				c26.8-4.2,48.6-25.1,51.9-52.7C153,116.7,152.9,109.3,151.8,102.3z"/>
			<path d="M171.6,63c-0.5-3.3-2.6-6.1-5.8-7.5c-3.1-1.4-7.1-2-12.3-2l0,0c-3.6,0-7.7,0.4-11.8,1c-3.7,0.6-7.3,1.3-10.6,2.2
				c0.5-0.7,0.9-1.3,1.3-1.9c1.3-2.1,2.4-3.9,2.1-6.3c-0.3-1.8-1.5-3.2-3-4.1c-1.5-0.9-3.4-1.6-5.9-2.4c-14.7-4.3-31.3-6.7-47.5-4.6
				c-0.6,0.1-1.1,0.2-1.7,0.2c-3.9,0.6-6.4,1.3-8.4,2.6c-1,0.7-1.8,1.6-2.2,2.7c-0.4,1.1-0.4,2.2-0.3,3.2c0.3,1.8,1.1,3.5,1.9,5.5
				c0.7,1.5,1.9,4.2,2.6,6.1c-0.1,0,0.5,0.6,0.4,0.6c0.5,0.6-0.1-0.2,0.3,0.5c0.5-0.2,1-0.4,1.5-0.5l2.5-1.3c-1-2.9-2.1-5.3-2.9-7.2
				c-0.9-1.9-1.5-3.5-1.6-4.4c-0.1-0.5,0-0.7,0-0.8c0-0.1,0.2-0.5,1.3-1c1.1-0.5,2.9-1,5.6-1.4c0.5-0.1,1-0.2,1.6-0.2
				c15.3-2.1,31.3,0.2,45.6,4.4c2.3,0.7,4,1.3,4.8,1.9c0.9,0.6,0.9,0.8,0.9,0.8c0.1,0.1-0.1,1.2-1.4,3c-1.2,1.8-3.1,4.2-5.4,7.3
				l-1.5,2l4.1,1.6c4.1-1.4,10.4-3,16.6-4c3.9-0.6,7.8-1,11-1v0c4.9,0,8.4,0.6,10.4,1.6c2,1,2.7,2,3.1,4c0.4,2.2-0.2,5.7-1.8,10.5
				c-2,6-11.1,19.6-17.5,25.7l-0.9,0.8l0.2,1.2c0.1,0.3,0.1,0.6,0.2,0.9c1,6.6,1.1,13.5,0.2,20.5c-0.9,7.4-3.2,14.2-6.7,20.4l-0.6,1
				l0.5,1.1c2.9,6.7,5.7,15.8,6.8,22.3c0.2,1.1,0.3,2.1,0.4,3c0.3,5,0,8.6-0.8,10.6c-0.4,1-0.9,1.7-1.6,2.1
				c-0.6,0.5-1.5,0.9-2.8,1.1c-2.4,0.4-6.3,0-11.5-1.1c-7.4-1.6-17.9-7.7-24.3-12.5l-0.9-0.7l-1.1,0.3c-1.8,0.5-3.6,0.8-5.5,1.1
				c-5.3,0.8-10.9,1-16.6,0.3c-2.3-0.3-4.6-0.7-6.8-1.2l-0.2,0c0.1,0.3,0.1,0.6,0.2,0.8c0.5,1.4,0.8,2.8,1.1,4.2
				c1.7,0.3,3.4,0.6,5.1,0.8c6.1,0.7,12.1,0.6,17.8-0.3c1.6-0.3,3.2-0.6,4.8-0.9c6.8,4.9,16.9,10.8,25.2,12.6
				c5.5,1.2,9.7,1.7,13.2,1.2h0c1.8-0.3,3.5-0.9,4.9-1.9c2.1-1.6,3.3-4,3.8-6.7c0.6-2.8,0.6-6.1,0.4-10.1c-0.1-1.1-0.2-2.2-0.4-3.4
				c-1.1-6.7-3.8-15.4-6.6-22.3c3.5-6.4,5.8-13.5,6.7-21.1c0.9-7.3,0.8-14.6-0.2-21.6c6.9-7.1,15.3-19.6,17.8-26.7
				C171.3,70.7,172.2,66.6,171.6,63z"/>
			<path d="M71.8,172.5c-0.1-0.1-0.2-0.2-0.4-0.4c-5.7,5-14.4,11.3-20.9,13.4c-2.9,0.9-5.4,1.6-7.5,1.9c-3.5,0.5-5.4,0.1-6.5-0.7
				c-1.1-0.8-2.1-2.6-2.6-6.1c-0.3-1.6-0.4-3.5-0.5-5.7c-0.2-4.8,1.1-12.7,2.8-19.6c0.7-2.8,1.5-5.4,2.3-7.7
				c-0.2-0.1-0.3-0.1-0.5-0.2c-1.5-0.8-2.4-2.1-3-3.6c-0.1,0.2-0.2,0.4-0.2,0.6c-3.2,8.3-6.3,22.3-6,30.7c0.1,2.3,0.2,4.4,0.5,6.3
				c0.6,3.9,1.8,7.1,4.4,9.1c2.6,2,6,2.2,10,1.6c2.4-0.4,5.1-1.1,8.2-2.1c5.8-1.9,12.1-6,17.5-10.2c2.3-1.8,4.5-3.6,6.3-5.3
				C74.4,174.1,73,173.4,71.8,172.5z"/>
			<g>
				<g>
					<path d="M86.1,55.2c0.1,0.4-11.2,2.9-23.5,9.7C50,71.6,42.7,81.8,42.7,81.7c-0.4,0,5.1-12.5,18.3-19.6
						C74,54.9,86.2,55.2,86.1,55.2z"/>
				</g>
			</g>
			<g>
				<g>
					<path d="M111.2,59.4c-0.1,0,5.7-0.9,12.4,2.3c6.7,3.2,9.2,9.1,9.1,9c-0.2,0.2-4.2-4.2-10.1-6.9
						C116.6,60.9,111.1,59.7,111.2,59.4z"/>
				</g>
			</g>
			<g>
				<path d="M40.6,121.7c0-0.2-4.1-0.9-10.4-2.9c-6.3-2.1-8.8-3.1-8.9-2.9c-0.1,0.2-0.7,4.2,5.8,6.4C33.7,124.5,40.7,122,40.6,121.7
					z"/>
			</g>
			<g>
				<path d="M142.8,87.8c-0.1,0.1,3.1,7.5,4.2,14c1.6,6.4,2.4,9.1,2.6,9.1c0.2,0,2.6-3.3,0.9-9.9C149,94.3,143,87.6,142.8,87.8z"/>
			</g>
			<g>
				<g>
					<path class="st11" d="M79.1,118.3c4.3,6.8,2.3,15.9-4.6,20.2c-6.8,4.3-16.9,3.1-21.2-3.7c-4.3-6.8-1.3-16.7,5.6-21
						C65.7,109.4,74.8,111.4,79.1,118.3z"/>
					<path d="M51.3,136c-1.2-2-2-4.2-2.2-6.4l0,0c-0.8-6.9,2.6-14,8.5-17.8l0,0c2.2-1.4,4.6-2.2,7-2.5l0,0
						c6.3-0.8,12.8,2.1,16.4,7.8l0,0l-2,1.2l2-1.2c1.4,2.2,2.2,4.6,2.5,7l0,0c0.8,6.3-2.1,12.8-7.8,16.4l0,0
						c-2.4,1.5-5.1,2.4-7.8,2.7l0,0C61.7,143.9,55,141.6,51.3,136L51.3,136z M60.1,115.7c-4.4,2.7-7,8.4-6.4,13.4l0,0
						c0.2,1.6,0.7,3.1,1.6,4.5l0,0c2.4,3.8,7.3,5.7,12.1,5.1l0,0c2.1-0.2,4.1-0.9,5.9-2.1l0,0c4.2-2.6,6.2-7.3,5.7-11.9l0,0
						c-0.2-1.8-0.8-3.5-1.8-5.1l0,0l0,0c-2.6-4.2-7.3-6.2-11.9-5.7l0,0C63.4,114,61.7,114.6,60.1,115.7L60.1,115.7z"/>
				</g>
				<path d="M71.9,124.9c-0.2,1-1,1.9-2.1,2c-1.3,0.2-2.5-0.8-2.6-2.1c-0.1-1,0.4-2,1.3-2.4c-0.4-0.1-0.7-0.1-1.1,0
					c-2.4,0.3-4.2,2.5-3.9,4.9c0.3,2.4,2.5,4.2,5,3.9c2.4-0.3,4.2-2.5,3.9-5C72.3,125.8,72.1,125.3,71.9,124.9z"/>
				<path class="st3" d="M74.3,133.5c-6.8,4.3-16.9,3.1-21.2-3.7c-1-1.6-1.6-3.4-1.9-5.3c-0.3,3.1,0.2,6.2,1.9,8.8
					c4.3,6.8,14.4,8.1,21.2,3.7c5-3.1,7.4-8.8,6.7-14.2C80.5,127,78.2,131,74.3,133.5z"/>
			</g>
			<g>
				<g>
					<path class="st11" d="M87.6,122.4c-2.6,7.7,1.5,16,9.2,18.6c7.7,2.6,17.1-1,19.7-8.6c2.6-7.7-2.7-16.5-10.4-19.1
						C98.5,110.6,90.2,114.7,87.6,122.4z"/>
					<path d="M104.3,143.9c-2.7,0.3-5.6,0.1-8.2-0.8l0,0c-6.4-2.2-10.7-7.8-11.4-14.1l0,0c-0.3-2.4-0.1-5,0.8-7.4l0,0l0,0
						c2.2-6.4,7.8-10.7,14.1-11.4l0,0c2.4-0.3,5-0.1,7.4,0.8l0,0c6.7,2.3,11.6,8.5,12.5,15.3l0,0c0.3,2.2,0.1,4.5-0.7,6.7l0,0
						C116.6,139.4,110.6,143.2,104.3,143.9L104.3,143.9L104.3,143.9L104.3,143.9z M89.2,128.5c0.6,4.6,3.7,8.7,8.3,10.2l0,0
						c2,0.7,4.1,0.9,6.2,0.6l0,0c4.8-0.6,9.2-3.5,10.6-7.8l0,0c0.5-1.5,0.6-3.1,0.5-4.7l0,0c-0.6-5-4.5-9.9-9.4-11.5l0,0
						c-1.8-0.6-3.6-0.8-5.4-0.6l0,0c-4.6,0.6-8.7,3.6-10.2,8.3l0,0C89.2,124.9,89,126.7,89.2,128.5L89.2,128.5z"/>
				</g>
				<path d="M104.8,126.1c-0.2,1-1,1.9-2.1,2c-1.3,0.2-2.5-0.8-2.6-2.1c-0.1-1,0.4-2,1.3-2.4c-0.4,0-0.7-0.1-1.1,0
					c-2.4,0.3-4.2,2.5-3.9,5c0.3,2.4,2.5,4.2,5,3.9c2.4-0.3,4.2-2.5,3.9-5C105.1,127,105,126.5,104.8,126.1z"/>
				<path class="st3" d="M111.4,134.3c-6.8,4.3-16.9,3.1-21.2-3.7c-1-1.6-1.6-3.4-1.9-5.3c-0.3,3.1,0.2,6.2,1.9,8.8
					c4.3,6.8,14.4,8.1,21.2,3.7c5-3.1,7.4-8.8,6.7-14.2C117.6,127.8,115.3,131.8,111.4,134.3z"/>
			</g>
			<g>
				<path class="st8" d="M57.4,143c44.9,34.3,45.9,18.1,56.4,3.8C99.2,150.3,104.5,148.7,57.4,143z"/>
				<path d="M57.4,143c8.2,6.3,8,6.7,14,10.2c2.9-3.1,8.3-5.1,14.5-4.9c8.9,0.3,16.4,6.8,16.5,12.5c4.8-2.5,7.7-9,11.4-14
					C99.2,150.3,103.9,147.6,57.4,143z"/>
				<path d="M92.7,149.4c-4.1-1.3-7.9,0.5-9.4,4.7C86.5,150.7,88.2,150.1,92.7,149.4z"/>
				<path class="st9" d="M75,153.9c0,0,5.2-5.1,10.3-2.8c5.8-1,12.2,2.8,16.1,10.4l2.2-3.8c0,0-9.1-17.9-32.3-7.3
					C72.5,153.3,75,153.9,75,153.9z"/>
			</g>
			<path class="st4" d="M149,101.2c10-10.4,23.4-28.9,19.6-40.8c-6,7.9-4,17-23.2,32.3C150.2,104.8,149,101.2,149,101.2z"/>
			<path class="st4" d="M70.6,174.1c-9.8,8.5-26.8,19.2-36.5,13.8c7.3-4.8,14.8-1.6,29.7-18.5C73.6,175.8,70.6,174.1,70.6,174.1z"/>
			<path class="st4" d="M143.6,146.9c5.3,12,12.9,39.8-3,40.8c3-7.1-7.8-18.4-23-17.9C126.5,162,143.6,146.9,143.6,146.9z"/>
			<path d="M53.2,69.5c0.7-0.5,1.5-1.1,2.3-1.7C42.8,69.9,25.9,76.9,15,86.1v0c-1.5,1.2-2.8,2.3-3.9,3.4c-2.4,2.5-4.3,4.6-5.7,6.6
				c-1.1,1.6-2,3.2-2.3,5c-0.5,2.6,0.4,5.3,2.2,7.5c1.8,2.2,4.5,4.4,8.2,6.9c0.3,0.2,0.5,0.4,0.8,0.6c3.9,2.7,8.8,5.1,13.6,6.9
				c0.1,0,0.1,0,0.2,0c2.5,0,5.4,0.3,7.9-0.3c0.8-0.2,1.6-0.4,2.4-0.7c0,0-0.1-0.1-0.1-0.1c-0.2-0.2-0.3-0.3-0.5-0.5
				c-1.7-0.4-3.6-1-5.5-1.7c-5.4-1.9-11.2-4.5-15.3-7.4c-0.3-0.2-0.5-0.4-0.8-0.6c-4.8-3.3-7.4-5.8-8.2-7.5
				c-0.4-0.9-0.5-1.4-0.3-2.2c0.1-0.8,0.6-1.9,1.5-3.2c1.1-1.6,2.9-3.6,5.2-6c0.2-0.2,0.3-0.3,0.5-0.5v0c0.6-0.6,1.3-1.2,1.9-1.8
				c5.3-4.6,14.1-9.5,23.8-13.7l0.8-0.4c2.3-0.8,4.5-1.6,6.7-2.2C50,72.6,51.2,70.8,53.2,69.5z"/>
		</g>
		<g>
			<path class="st6" d="M189.2,96.9c-4.5,0-7.9-2.5-11.3-5c-0.7-0.5-1.5-1.1-2.2-1.6c-0.7-0.4-1.5-0.8-2.5-1.1
				c-1.1-0.4-2.4-0.9-3.5-1.6c-7-4.6-13.8-13.8-17.3-23.6c-4.6-12.6-4.6-26.7,0-34.3c2.1-3.4,6.7-5.8,11.2-5.9c0.1,0,0.1,0,0.1,0
				c0,0,0.2,0,0.2,0c0.7,0,1.5,0.1,2.2,0.2c0.1,0,0.1,0,0.2,0c0.5,0.1,0.8,0.2,1.2,0.4c0.2,0.1,0.4,0.1,0.7,0.2
				c1.7,0.1,3,0.6,3.9,1.6c1.8,2,1.5,5.2,1.2,8.5l-0.1,0.9c0,0.5-0.1,1.1-0.1,1.6c-0.2,3.6-0.4,8.5-6.1,8.5c-0.1,0-0.3,0-0.4,0
				c-0.1,0-0.1,0-0.2,0c-0.2,0-0.4-0.1-0.5-0.1c-0.4-0.1-0.7-0.1-0.9-0.1c-0.2,0-0.4,0-0.9,0.3c-2.8,2.1,0.6,9,3,14
				c0.4,0.9,0.8,1.7,1.2,2.5c2.2,4.7,4.3,9,6.2,10.9c1.2-0.1,2.7-0.7,3.9-1.3c0.4-0.2,0.7-0.3,1.2-1c1.1-1.4,3.5-1.8,4.8-1.8
				c0.1,0,0.2,0,0.3,0c1.7,0.2,7.7,5.1,9.5,9.9c1,2.7,0.6,5-1.1,6.8c-0.1,0.1-0.1,0.1-0.2,0.2c-0.6,0.4-0.9,0.7-1.3,1
				c-0.3,0.3-0.6,0.5-1.1,0.9c0,0-0.1,0-0.1,0.1c-1.4,1-3.2,1.6-5.2,1.9c1.6,0.7,3.8,0.9,5.7,1l0.8,0.1c0.4,0,0.7,0.2,1,0.6
				c0.2,0.3,0.3,0.7,0.1,1.1c-0.1,0.3-0.2,0.6-0.3,1c-0.2,0.8-0.5,1.7-1,2.6c-0.2,0.3-0.6,0.5-0.9,0.6
				C190.1,96.9,189.6,96.9,189.2,96.9C189.2,96.9,189.2,96.9,189.2,96.9z"/>
			<path d="M163.7,25.1C163.7,25.1,163.7,25.1,163.7,25.1c0,0,0.1,0,0.1,0c0.7,0,1.3,0.1,2,0.2c0,0,0,0,0,0c0.7,0.1,1.1,0.4,2.1,0.7
				c5.1,0.1,4.4,4.7,4,9.7c-0.3,4,0.3,8.9-4.9,8.9c-0.1,0-0.2,0-0.3,0c-0.7-0.1-1.2-0.3-1.6-0.3c-0.5,0-0.9,0.1-1.6,0.5
				c-4.3,3,0.9,12.1,3.7,18.1c2.4,5.1,4.6,9.8,6.9,11.6c0.1,0,0.1,0,0.2,0c1.4,0,3-0.6,4.8-1.4c0.6-0.3,1-0.5,1.7-1.3
				c0.8-1,2.7-1.4,3.8-1.4c0.1,0,0.2,0,0.3,0c1.5,0.1,12.5,9.3,7.5,14.5c-1.2,0.8-1.4,1.1-2.5,2c0,0,0,0,0,0c-2,1.5-5.2,1.9-7.4,2.2
				c1.5,2.8,6,2.9,9.3,3.2c-0.4,1.1-0.5,2.3-1.1,3.2c-0.4,0-0.8,0.1-1.2,0.1c-4.9,0-8.7-3.5-12.8-6.3c-1.6-1.1-4-1.4-6.1-2.7
				c-6.1-4-13.1-12.5-16.8-22.9c-4.3-12-4.5-25.9-0.1-33.2C155.3,27.3,159.5,25.2,163.7,25.1C163.6,25.1,163.6,25.1,163.7,25.1
				 M163.7,22.6c-0.1,0-0.2,0-0.2,0c-5.1,0.1-10,2.7-12.2,6.5c-4.7,7.9-4.8,22.4-0.1,35.4c3.6,10,10.6,19.5,17.8,24.2
				c1.3,0.8,2.6,1.3,3.8,1.7c0.9,0.3,1.7,0.6,2.2,1c0.7,0.5,1.5,1,2.2,1.5c3.5,2.6,7.2,5.2,12.1,5.2c0.5,0,1,0,1.5-0.1
				c0.8-0.1,1.5-0.5,1.9-1.2c0.6-1,0.9-2.1,1.1-2.9c0.1-0.3,0.2-0.6,0.3-0.9c0.2-0.7,0.1-1.6-0.3-2.2c-0.4-0.7-1.1-1.1-1.9-1.1
				l-0.8-0.1c-0.3,0-0.5,0-0.8-0.1c0.3-0.2,0.6-0.3,0.9-0.5c0.1,0,0.1-0.1,0.2-0.1c0.5-0.4,0.9-0.7,1.2-1c0.4-0.3,0.6-0.5,1.2-0.9
				c0.2-0.1,0.3-0.2,0.4-0.4c2-2.1,2.5-5,1.4-8.1c-1.8-5-8.1-10.4-10.5-10.7c0,0-0.1,0-0.1,0c-0.1,0-0.3,0-0.4,0
				c-0.4,0-4,0.1-5.8,2.3c-0.4,0.4-0.5,0.5-0.8,0.6c-0.9,0.4-2,0.9-2.9,1.1c-1.9-2.1-4-6.8-5.5-10c-0.4-0.8-0.8-1.6-1.2-2.5
				c-1.8-3.8-5.2-10.8-3.5-12.4C164.9,47,165,47,165,47c0.1,0,0.4,0.1,0.6,0.1c0.2,0,0.4,0.1,0.6,0.1c0.1,0,0.2,0,0.4,0
				c0.1,0,0.3,0,0.4,0c6.9,0,7.2-6.3,7.4-9.7c0-0.5,0-1.1,0.1-1.6l0.1-0.9c0.3-3.7,0.6-7.1-1.5-9.5c-1.1-1.2-2.7-1.9-4.6-2
				c-0.2-0.1-0.4-0.1-0.5-0.2c-0.4-0.1-0.8-0.3-1.3-0.4c-0.1,0-0.2,0-0.3-0.1c-0.7-0.1-1.5-0.2-2.4-0.2c0,0-0.1,0-0.1,0
				C163.7,22.6,163.7,22.6,163.7,22.6L163.7,22.6z"/>
		</g>
		<g class="st5">
			<path class="st0" d="M178.5,87.8c-1.6-1.1-3.8-1.3-5.8-2.6c-5.8-3.8-12.4-11.9-16-21.8c-4.1-11.4-4.3-24.7-0.1-31.6
				c1.8-3,5.9-5,9.8-5c0,0,0,0,0,0c0,0,0.1,0,0.1,0c0.6,0,1.3,0.1,1.9,0.2c0,0,0,0,0,0c0.7,0.1,1.1,0.3,2,0.6c0.4,0,0.7,0,1,0.1
				c-0.6-1-1.7-1.6-3.5-1.6c-1-0.3-1.4-0.5-2.1-0.7c0,0,0,0,0,0c-0.6-0.1-1.3-0.2-2-0.2c0,0-0.1,0-0.1,0c0,0,0,0,0,0
				c-4.1,0-8.4,2.1-10.2,5.3c-4.4,7.3-4.2,21.2,0.1,33.2c3.8,10.5,10.7,19,16.8,22.9c2,1.3,4.4,1.6,6.1,2.7c4.5,3,8.4,6.9,14,6.3
				c0.3-0.5,0.5-1.1,0.7-1.7C186.2,94,182.6,90.6,178.5,87.8z"/>
		</g>
	</g>
</g>
</svg>
