<?xml version="1.0" encoding="utf-8"?>
<!-- Generator: Adobe Illustrator 16.0.3, SVG Export Plug-In . SVG Version: 6.00 Build 0)  -->
<!DOCTYPE svg PUBLIC "-//W3C//DTD SVG 1.1//EN" "http://www.w3.org/Graphics/SVG/1.1/DTD/svg11.dtd">
<svg version="1.1" id="Capa_1" xmlns="http://www.w3.org/2000/svg" xmlns:xlink="http://www.w3.org/1999/xlink" x="0px" y="0px"
	 width="24px" height="24px" viewBox="0 0 24 24" style="enable-background:new 0 0 24 24;" xml:space="preserve">
<style type="text/css">
<![CDATA[
	.st0{fill:#9900f1;}
]]>
</style>
  <defs>
    <filter id="f2" x="0" y="0" width="200%" height="200%">
      <feOffset result="offOut" in="SourceGraphic" dx="20" dy="20" />
      <feGaussianBlur result="blurOut" in="offOut" stdDeviation="10" />
      <feBlend in="SourceGraphic" in2="blurOut" mode="normal" />
    </filter>
  </defs>
<path class="st0" filter="url(#f2)" d="M6.9,13.5c1.1,1.1,2.1,2.1,3.2,3.2C9.7,16.8,9.4,17,9,17c-0.5,0.1-1,0.2-1.5,0.3c0,0-0.1,0-0.1,0
	c-0.4-0.4-0.7-0.7-1.1-1.1c0,0-0.1-0.1-0.1-0.1c0.1-0.8,0.3-1.6,0.6-2.4C6.8,13.6,6.9,13.5,6.9,13.5z M8.6,13.5
	c0.2,0.1,0.3,0,0.4-0.1c0.5-0.5,0.9-0.9,1.4-1.4c0.9-0.9,1.8-1.8,2.7-2.7c0.1-0.1,0.2-0.2,0.2-0.4c0-0.2-0.1-0.4-0.3-0.4
	c-0.2-0.1-0.4,0-0.5,0.1c-1.1,1.1-2.2,2.2-3.3,3.3c-0.2,0.2-0.5,0.5-0.7,0.7c-0.1,0.1-0.2,0.3-0.1,0.4C8.3,13.3,8.4,13.4,8.6,13.5z
	 M14.8,10.3c-0.2-0.1-0.4,0-0.5,0.1c-1.4,1.4-2.7,2.7-4.1,4.1c-0.2,0.2-0.2,0.5,0,0.6c0.2,0.2,0.4,0.2,0.6,0
	c0.1-0.1,0.2-0.2,0.3-0.3c1.3-1.3,2.5-2.5,3.8-3.8c0.1-0.1,0.2-0.2,0.2-0.4C15.1,10.5,15,10.3,14.8,10.3z M22.9,12
	c0,6.1-5,11.1-11.1,11.1c-6.1,0-11.1-5-11.1-11.1c0-6.1,5-11.1,11.1-11.1C18,0.9,22.9,5.9,22.9,12z M16.9,10.6c-1.3-1.3-2.7-2.7-4-4
	c-0.1-0.1-0.1-0.1-0.2-0.1c-0.2-0.1-0.4,0-0.5,0.2c-1.8,1.8-3.7,3.7-5.5,5.5c-0.1,0.2-0.3,0.3-0.4,0.5c-0.4,0.5-0.6,1.1-0.7,1.7
	c-0.2,1-0.4,2-0.6,3c-0.1,0.3-0.1,0.6-0.2,0.8c0,0.1,0,0.2,0,0.2c0.1,0.2,0.2,0.3,0.3,0.3c0.1,0,0.1,0,0.2,0c0,0,0,0,0.1,0
	c0.6-0.1,1.2-0.2,1.8-0.3c0.8-0.1,1.6-0.3,2.4-0.5c0.6-0.2,1.2-0.5,1.6-0.9c1.9-1.9,3.8-3.8,5.7-5.7C17.2,11.1,17.2,10.8,16.9,10.6z
	 M18.9,7.4c0-0.1-0.1-0.3-0.1-0.4c-0.3-1.2-1.3-2.2-2.6-2.3c0,0-0.1,0-0.1,0c-0.2,0-0.4,0-0.6,0c0,0,0,0-0.1,0
	c-0.6,0.1-1.2,0.3-1.6,0.7c-0.3,0.2-0.3,0.5,0,0.7c0.2,0.2,0.3,0.3,0.5,0.5c1,1,2.1,2.1,3.1,3.1c0.2,0.2,0.5,0.2,0.7,0
	c0.3-0.4,0.5-0.8,0.7-1.2c0-0.2,0.1-0.3,0.1-0.5C18.9,7.8,18.9,7.6,18.9,7.4z"/>
</svg>
