<?xml version="1.0" encoding="utf-8"?>
<!-- Generator: Adobe Illustrator 16.0.3, SVG Export Plug-In . SVG Version: 6.00 Build 0)  -->
<!DOCTYPE svg PUBLIC "-//W3C//DTD SVG 1.1//EN" "http://www.w3.org/Graphics/SVG/1.1/DTD/svg11.dtd">
<svg version="1.1" id="Capa_1" xmlns="http://www.w3.org/2000/svg" xmlns:xlink="http://www.w3.org/1999/xlink" x="0px" y="0px"
	 width="23px" height="23px" viewBox="0 0 23 23" style="enable-background:new 0 0 23 23;" xml:space="preserve">
<style type="text/css">
<![CDATA[
	.st0{fill:#FFFFFF80;}
]]>
</style>
<path class="st0" d="M6,9.2C5.7,9,5.4,8.8,4.9,8.6c0.9-0.3,1.7-0.7,2.6-1c1.9-0.7,3.8-1.4,5.7-2.1c0.3-0.1,0.5-0.1,0.8,0.1
	c1.4,0.8,2.8,1.7,4.3,2.5c-1.8,0.7-3.6,1.3-5.3,2c-0.2,0.1-0.3,0-0.5-0.1c-0.7-0.5-1.3-0.9-2-1.4C10.2,8.4,10,8.3,9.7,8.4
	C8.7,8.7,7.8,9,6.9,9.3C6.6,9.5,6.3,9.4,6,9.2z M22.7,11.5c0,6.1-5,11.1-11.1,11.1c-6.1,0-11.1-5-11.1-11.1c0-6.1,5-11.1,11.1-11.1
	C17.7,0.4,22.7,5.4,22.7,11.5z M3,8.4c0,0.4,0.2,0.6,0.4,0.7c1,0.6,2,1.2,3,1.8C6.5,10.9,6.6,11,6.8,11c1.8,0.2,3.7,0.3,5.5,0.5
	c0.2,0,0.3,0,0.5-0.1c2.3-0.8,4.6-1.7,6.9-2.6c0.3-0.1,0.5-0.2,0.5-0.6c0-0.3-0.2-0.5-0.4-0.7c-1.9-1.1-3.8-2.3-5.7-3.4
	c-0.3-0.1-0.5-0.2-0.8-0.1C10,5.4,6.8,6.6,3.5,7.8C3.2,7.9,3,8,3,8.4z M3,11.1c0,0.4,0.2,0.6,0.5,0.7C5.3,12.9,7.1,14,8.9,15
	c0.3,0.2,0.6,0.2,1,0.1c1.8-0.7,3.6-1.4,5.4-2c1.4-0.5,2.8-1,4.2-1.6c0.3-0.1,0.5-0.3,0.5-0.6c0-0.3-0.1-0.5-0.4-0.7
	c-0.3-0.2-0.5-0.3-0.8-0.5c-0.1-0.1-0.3-0.1-0.4-0.1c-0.4,0.2-0.8,0.3-1.2,0.5c0.2,0.3,0.6,0.3,0.8,0.6c-2.4,0.9-4.8,1.7-7.1,2.7
	c-1.1,0.4-1.9,0.4-2.8-0.3c-1-0.7-2.1-1.3-3.2-1.9c0.2-0.2,0.5-0.2,0.7-0.4c-0.7-0.4-1.2-1-2.1-0.5C3.3,10.6,3,10.7,3,11.1z
	 M20.2,14c0-0.3-0.1-0.5-0.4-0.6c-0.4-0.2-0.8-0.5-1.2-0.7c-0.1,0-0.2-0.1-0.3-0.1c-0.4,0.2-0.8,0.3-1.3,0.5
	c0.4,0.3,0.8,0.5,1.2,0.7C18,13.9,17.9,14,17.8,14c-2.7,1-5.3,2-8,3c-0.3,0.1-0.5,0-0.7-0.1c-1.3-0.8-2.6-1.5-3.9-2.3
	c-0.1-0.1-0.2-0.1-0.3-0.3c0.3-0.1,0.6-0.2,0.9-0.4c-0.7-0.6-1.4-1-2.2-0.5c-0.1,0.1-0.2,0.1-0.3,0.1C3.2,13.7,3,13.8,3,14.1
	c0,0.3,0.2,0.5,0.4,0.7c1.9,1.1,3.8,2.3,5.7,3.4c0.2,0.2,0.5,0.2,0.8,0.1c3.3-1.2,6.6-2.4,9.9-3.7C19.9,14.5,20.1,14.3,20.2,14z"/>
</svg>
