<?xml version="1.0" encoding="utf-8"?>
<!-- Generator: Adobe Illustrator 16.0.3, SVG Export Plug-In . SVG Version: 6.00 Build 0)  -->
<!DOCTYPE svg PUBLIC "-//W3C//DTD SVG 1.1//EN" "http://www.w3.org/Graphics/SVG/1.1/DTD/svg11.dtd">
<svg version="1.1" id="Capa_1" xmlns="http://www.w3.org/2000/svg" xmlns:xlink="http://www.w3.org/1999/xlink" x="0px" y="0px"
	 width="80px" height="80px" viewBox="0 0 80 80" style="enable-background:new 0 0 80 80;" xml:space="preserve">
<style type="text/css">
<![CDATA[
	.st0{fill:url(#SVGID_1_);}
]]>
</style>
<linearGradient id="SVGID_1_" gradientUnits="userSpaceOnUse" x1="23.7832" y1="22.0591" x2="56.5704" y2="54.8463">
	<stop  offset="0" style="stop-color:#A5CD14"/>
	<stop  offset="1" style="stop-color:#00AC87"/>
</linearGradient>
<path class="st0" d="M69.2,38.6c0-3.5-4.3-6.6-12-8.5c-0.6-0.1-1.2,0.2-1.4,0.8c-0.1,0.6,0.2,1.2,0.8,1.4C63,33.8,67,36.3,67,38.6
	c0,3.9-11.4,8.3-27.8,8.3c-2.5,0-4.8-0.1-7-0.3c-0.3-2.6-0.4-5.4-0.4-8.3c0-16.4,4.8-27.7,9.1-27.7c4.3,0,9.1,11.4,9.1,27.7
	c0,0.8,0,1.6,0,2.3l-2.2-2.2c-0.4-0.4-1.1-0.4-1.6,0c-0.4,0.4-0.4,1.1,0,1.6l4.8,4.8l4.8-4.8c0.4-0.4,0.4-1.1,0-1.6
	c-0.4-0.4-1.1-0.4-1.6,0l-2,2c0-0.7,0-1.4,0-2.1c0-17.1-4.9-30-11.3-30c-6.5,0-11.3,12.9-11.3,30c0,2.8,0.1,5.5,0.4,8.1
	c-11.2-1.3-18.5-4.7-18.5-7.8c0-2.2,4.1-5.2,13.1-7l-1.7,2.1c-0.4,0.5-0.3,1.2,0.2,1.6c0.2,0.2,0.5,0.3,0.7,0.3
	c0.3,0,0.6-0.1,0.9-0.4l4.3-5.3l-5.3-4.3c-0.5-0.4-1.2-0.3-1.6,0.2c-0.4,0.5-0.3,1.2,0.2,1.6l2.5,2C15,31.1,9.2,34.5,9.2,38.6
	c0,5.4,9.7,8.9,21,10.1c1.5,11.7,5.6,19.6,10.7,19.6c4.2,0,7.7-5.3,9.8-14.4c0.1-0.6-0.3-1.2-0.9-1.3c-0.6-0.1-1.2,0.2-1.3,0.8
	c-1.7,7.7-4.7,12.7-7.6,12.7c-3.3,0-6.9-6.7-8.4-17.2c2.2,0.2,4.5,0.3,6.7,0.3C53.8,49.1,69.2,45.4,69.2,38.6z"/>
</svg>
