<?xml version="1.0" encoding="utf-8"?>
<!-- Generator: Adobe Illustrator 16.0.3, SVG Export Plug-In . SVG Version: 6.00 Build 0)  -->
<!DOCTYPE svg PUBLIC "-//W3C//DTD SVG 1.1//EN" "http://www.w3.org/Graphics/SVG/1.1/DTD/svg11.dtd">
<svg version="1.1" id="Capa_1" xmlns="http://www.w3.org/2000/svg" xmlns:xlink="http://www.w3.org/1999/xlink" x="0px" y="0px"
	 width="80px" height="80px" viewBox="0 0 80 80" style="enable-background:new 0 0 80 80;" xml:space="preserve">
<style type="text/css">
<![CDATA[
	.st0{fill:url(#SVGID_1_);}
	.st1{fill:url(#SVGID_2_);}
	.st2{fill:url(#SVGID_3_);}
]]>
</style>
<g>
	<linearGradient id="SVGID_1_" gradientUnits="userSpaceOnUse" x1="22.3301" y1="18.5864" x2="62.9797" y2="59.2361">
		<stop  offset="0" style="stop-color:#A5CD14"/>
		<stop  offset="1" style="stop-color:#00AC87"/>
	</linearGradient>
	<path class="st0" d="M69.6,27.2c2.1-2.1,2.1-5.5,0-7.6L62,12c-1-1-2.4-1.6-3.8-1.6c-1.4,0-2.8,0.6-3.8,1.6c-1,1-1.6,2.4-1.6,3.8
		c0,0.1,0,0.1,0,0.2c-4-2-8.3-3-12.9-3c-7.7,0-14.9,3-20.3,8.4C8.3,32.6,8.3,50.8,19.6,62c5.4,5.4,12.6,8.4,20.3,8.4
		c7.7,0,14.9-3,20.3-8.4c5.4-5.4,8.4-12.6,8.4-20.3c0-4.6-1-8.9-3-12.9c0.1,0,0.1,0,0.2,0C67.2,28.8,68.5,28.2,69.6,27.2z
		 M66.4,41.7c0,7.1-2.8,13.8-7.8,18.8c-5,5-11.7,7.8-18.8,7.8c-7.1,0-13.7-2.8-18.8-7.8c-10.4-10.3-10.4-27.2,0-37.5
		c5-5,11.7-7.8,18.8-7.8c6,0,11.7,2,16.3,5.6l1.2-1.2l-1.5-1.5c-1.3-1.3-1.3-3.3,0-4.5c0.6-0.6,1.4-0.9,2.3-0.9
		c0.8,0,1.6,0.3,2.3,0.9l7.6,7.6c1.2,1.2,1.2,3.3,0,4.5c-0.6,0.6-1.4,0.9-2.3,0.9c-0.8,0-1.6-0.3-2.2-0.9L62,24.2l-1.2,1.2
		C64.4,30,66.4,35.7,66.4,41.7z"/>
	<linearGradient id="SVGID_2_" gradientUnits="userSpaceOnUse" x1="24.2051" y1="26.0259" x2="55.5318" y2="57.3526">
		<stop  offset="0" style="stop-color:#A5CD14"/>
		<stop  offset="1" style="stop-color:#00AC87"/>
	</linearGradient>
	<path class="st1" d="M39.9,19.5c-5.9,0-11.5,2.3-15.7,6.5c-8.6,8.6-8.6,22.7,0,31.3c4.2,4.2,9.7,6.5,15.7,6.5
		c5.9,0,11.5-2.3,15.7-6.5c4.2-4.2,6.5-9.7,6.5-15.7c0-5.9-2.3-11.5-6.5-15.7C51.3,21.8,45.8,19.5,39.9,19.5z M54,55.8
		c-3.8,3.8-8.8,5.8-14.1,5.8c-5.3,0-10.3-2.1-14.1-5.8C18,48,18,35.4,25.8,27.6c3.8-3.8,8.8-5.8,14.1-5.8c5.3,0,10.3,2.1,14.1,5.8
		c3.8,3.8,5.8,8.8,5.8,14.1C59.8,47,57.7,52,54,55.8z"/>
	<linearGradient id="SVGID_3_" gradientUnits="userSpaceOnUse" x1="33.0283" y1="28.9526" x2="50.6577" y2="46.582">
		<stop  offset="0" style="stop-color:#A5CD14"/>
		<stop  offset="1" style="stop-color:#00AC87"/>
	</linearGradient>
	<path class="st2" d="M49.2,38.1H44V28c0-2.3-1.9-4.1-4.1-4.1c-2.3,0-4.1,1.9-4.1,4.1v11.3c-0.6,0.8-0.9,1.9-0.9,2.9
		c0,2.8,2.3,5.1,5.1,5.1c1.1,0,2.1-0.3,2.9-0.9h6.4c2.3,0,4.1-1.9,4.1-4.1C53.3,39.9,51.5,38.1,49.2,38.1z M49.2,44.2h-7.2
		c-0.5,0.6-1.3,0.9-2.1,0.9c-1.6,0-2.9-1.3-2.9-2.9c0-0.8,0.4-1.6,0.9-2.1V28c0-1.1,0.9-1.9,1.9-1.9c1.1,0,1.9,0.9,1.9,1.9v12.1
		c0.1,0.1,0.1,0.1,0.2,0.2h7.2c1.1,0,1.9,0.9,1.9,1.9C51.1,43.3,50.2,44.2,49.2,44.2z"/>
</g>
</svg>
