<?xml version="1.0" encoding="utf-8"?>
<!-- Generator: Adobe Illustrator 16.0.3, SVG Export Plug-In . SVG Version: 6.00 Build 0)  -->
<!DOCTYPE svg PUBLIC "-//W3C//DTD SVG 1.1//EN" "http://www.w3.org/Graphics/SVG/1.1/DTD/svg11.dtd">
<svg version="1.1" id="Capa_1" xmlns="http://www.w3.org/2000/svg" xmlns:xlink="http://www.w3.org/1999/xlink" x="0px" y="0px"
	 width="80px" height="80px" viewBox="0 0 80 80" style="enable-background:new 0 0 80 80;" xml:space="preserve">
<style type="text/css">
<![CDATA[
	.st0{fill:url(#SVGID_1_);}
	.st1{fill:url(#SVGID_2_);}
]]>
</style>
<g>
	<g>
		<linearGradient id="SVGID_1_" gradientUnits="userSpaceOnUse" x1="29.7373" y1="15.9678" x2="64.7798" y2="51.0103">
			<stop  offset="0" style="stop-color:#A5CD38"/>
			<stop  offset="1" style="stop-color:#00B39B"/>
		</linearGradient>
		<path class="st0" d="M40.4,70.2c-2.2,0-4.1-1.7-4.3-4c-0.2-2.1-0.4-4.3-0.5-6.4L35.4,57c-5-0.6-10.7-3.9-11.7-11.6
			c-0.2,0-0.5-0.1-0.7-0.1c-1.3-0.1-2.5-0.2-3.8-0.2c-1.2-0.1-2.3-0.2-3.5-0.2c-1.2-0.1-2.3-0.2-3.4-1.2c-1.6-1.5-1.9-3.7-0.7-5.5
			l1.2-1.9c1.7-2.7,3.5-5.5,5.3-8.2c2.2-3.2,5.4-4.8,9.5-4.6c1.1,0.1,2.1,0.2,3.1,0.3c0.7,0.1,1.5,0.2,2.3,0.2c0,0,0.1,0,0.1,0
			c6.8-7.3,15.4-11.7,26.3-13.5c3.9-0.7,6.6-0.7,9.3-0.3c1.2,0.2,1.8,0.9,2.1,2c0.6,3.4,0.2,6.7-0.3,9.5c-1.3,7.8-4.2,14.7-8.5,20.5
			c-1,1.3-2.1,2.4-3.1,3.6c-0.6,0.6-1.2,1.2-1.7,1.9c-0.1,0.1-0.1,0.2-0.1,0.2c0.1,1.2,0.2,2.4,0.3,3.7l0.1,1.3
			C57.6,57,56,60.6,52.5,63c-3.2,2.2-6.5,4.4-9.7,6.4C42,69.9,41.2,70.2,40.4,70.2z M26.7,25.8c-2.9,0-5.2,1.2-6.8,3.5
			c-1.8,2.7-3.5,5.5-5.2,8.2l-1.2,1.9c-0.5,0.8-0.4,1.8,0.4,2.5c0.4,0.4,0.9,0.5,1.8,0.5c1.2,0.1,2.3,0.1,3.5,0.2
			c1.3,0.1,2.5,0.2,3.8,0.2c0.4,0,0.9,0.1,1.3,0.1l1.5,0.2l0.1,1c0.6,7.4,6.1,10.3,10.6,10.5l1,0l0.1,1.3c0,0.2,0,0.3,0,0.5l0.2,3
			c0.2,2.1,0.3,4.3,0.5,6.4c0.1,1.2,1,1.8,1.9,1.8c0.4,0,0.7-0.1,1.1-0.3c3.2-2.1,6.5-4.2,9.7-6.4c2.8-2,4.1-4.6,3.7-8.1l-0.1-1.2
			c-0.1-1.2-0.2-2.5-0.3-3.8c0-0.6,0.2-1.4,0.7-1.9c0.6-0.7,1.2-1.3,1.8-1.9c1.1-1.1,2.1-2.2,2.9-3.3c4.1-5.5,6.8-12.1,8.1-19.5
			c0.5-2.7,0.8-5.7,0.3-8.7c0,0,0,0,0-0.1c0,0-0.1,0-0.1,0c-2.4-0.4-4.9-0.4-8.5,0.3c-10.4,1.8-18.6,6-25,12.9
			c-0.5,0.6-1.4,0.7-2,0.7c-0.8-0.1-1.5-0.1-2.3-0.2c-1-0.1-2-0.2-2.9-0.3C27.1,25.8,26.9,25.8,26.7,25.8z M51.8,34.9L51.8,34.9
			c-1.6,0-3.2-0.6-4.3-1.8c-2.4-2.4-2.3-6.2,0.1-8.5c1.1-1.1,2.6-1.7,4.2-1.7c1.6,0,3.2,0.6,4.3,1.8c2.3,2.4,2.3,6.2,0,8.5
			C55,34.3,53.5,34.9,51.8,34.9z M51.8,25.2c-1,0-1.9,0.4-2.5,1.1c-1.5,1.4-1.5,3.7,0,5.2c0.7,0.7,1.6,1.1,2.6,1.1l0,0
			c1,0,1.9-0.4,2.6-1.1c1.4-1.4,1.4-3.7,0-5.1C53.7,25.6,52.8,25.2,51.8,25.2z"/>
	</g>
	<g>
		<linearGradient id="SVGID_2_" gradientUnits="userSpaceOnUse" x1="13.5107" y1="52.8057" x2="27.8683" y2="67.1632">
			<stop  offset="0" style="stop-color:#A5CD38"/>
			<stop  offset="1" style="stop-color:#00B39B"/>
		</linearGradient>
		<path class="st1" d="M25.1,68.8c-0.4,0-0.7-0.1-1.1-0.2c-1.1-0.4-1.7-1.3-1.7-2.6c0-0.3,0-0.6,0-0.8l-0.2,0.1
			c-1.5,0.5-2.9,1-4.4,1.5c-1.4,0.5-2.4,0.2-3.2-0.6c-1.2-1.2-0.7-2.6-0.5-3.1c0.5-1.4,1-2.9,1.5-4.4l0.1-0.2c-0.2,0-0.5,0-0.7,0
			h-0.1c-1.2,0-2.1-0.6-2.6-1.7c-0.3-0.8-0.5-2,0.7-3.1c0.9-0.9,1.8-1.8,2.7-2.7c0.7-0.7,1.4-1.4,2.1-2.1c0.6-0.6,1.4-0.9,2.1-0.9
			c1.2,0,2.2,0.8,2.6,2c1.5,4.2,4.3,7,8.5,8.5c1,0.3,1.7,1.2,1.9,2.2c0.2,1-0.1,1.9-0.8,2.6c-1.3,1.2-2.5,2.4-3.7,3.6
			c-0.4,0.4-0.8,0.8-1.1,1.1C26.5,68.5,25.9,68.8,25.1,68.8z M24.6,61.9l0,2.4c0,0.6,0,1.1,0,1.7c0,0.3,0.1,0.3,0.2,0.4
			c0.1,0,0.2,0,0.2,0c0.1,0,0.2-0.1,0.3-0.2c0.4-0.4,0.7-0.8,1.1-1.1c1.2-1.2,2.4-2.5,3.8-3.7c0.1-0.1,0.1-0.2,0.1-0.4
			c0-0.1-0.1-0.3-0.4-0.4c-4.8-1.7-8.2-5-10-9.9c-0.1-0.3-0.2-0.4-0.4-0.4c-0.1,0-0.3,0.1-0.4,0.2c-0.7,0.7-1.4,1.4-2.1,2.1
			c-0.9,0.9-1.8,1.8-2.7,2.7c-0.3,0.3-0.2,0.3-0.2,0.5c0.1,0.1,0.1,0.2,0.3,0.2c0.6,0,1.1-0.1,1.6-0.1l2.6-0.2l-1.2,3.6
			c-0.5,1.6-1,3-1.5,4.5c-0.2,0.5-0.1,0.6,0,0.7c0.1,0.1,0.2,0.1,0.2,0.1c0.1,0,0.3,0,0.5-0.1c1.5-0.5,2.9-1,4.4-1.5L24.6,61.9z"/>
	</g>
</g>
</svg>
